<?xml version="1.0" encoding="UTF-8"?><svg id="Layer_2" xmlns="http://www.w3.org/2000/svg" xmlns:xlink="http://www.w3.org/1999/xlink" viewBox="0 0 613 87"><defs><style>.cls-1{fill:#2db14a;}.cls-2{opacity:.51;}.cls-3{opacity:.5;}.cls-4{letter-spacing:-.02em;}.cls-5{fill:#e5e550;filter:url(#drop-shadow-2);}.cls-6{fill:#fff;filter:url(#drop-shadow-1);}.cls-7{fill:#af2225;}.cls-8{fill:#805da6;}.cls-9{fill:#ed9b21;}.cls-10{fill:none;stroke:#231f20;stroke-linejoin:round;stroke-width:2px;}.cls-11{fill:#6d6e70;font-family:Verdana, Verdana;font-size:11.81px;}</style><filter id="drop-shadow-1" filterUnits="userSpaceOnUse"><feOffset dx="4" dy="6"/><feGaussianBlur result="blur" stdDeviation="4"/><feFlood flood-color="#000" flood-opacity=".75"/><feComposite in2="blur" operator="in"/><feComposite in="SourceGraphic"/></filter><filter id="drop-shadow-2" filterUnits="userSpaceOnUse"><feOffset dx="4" dy="6"/><feGaussianBlur result="blur-2" stdDeviation="4"/><feFlood flood-color="#000" flood-opacity=".75"/><feComposite in2="blur-2" operator="in"/><feComposite in="SourceGraphic"/></filter></defs><g id="Coisas"><g><rect class="cls-6" x="8.9" y="6.95" width="587.53" height="61.63" rx="30.81" ry="30.81"/><g><circle class="cls-5" cx="558.97" cy="37.76" r="19.44"/><path class="cls-8" d="M566.87,44.22l-3.18-3.18c2.38-3.18,1.73-7.68-1.45-10.05-3.18-2.38-7.68-1.73-10.05,1.45-2.38,3.18-1.73,7.68,1.45,10.05,2.55,1.91,6.05,1.91,8.6,0l3.18,3.18c.4,.4,1.05,.4,1.45,0,.4-.4,.4-1.05,0-1.45h0Zm-8.9-2.34c-2.82,0-5.11-2.29-5.11-5.11s2.29-5.11,5.11-5.11,5.11,2.29,5.11,5.11c0,2.82-2.29,5.11-5.11,5.11Z"/></g><g class="cls-3"><path class="cls-9" d="M427.22,27.94c-1.28-1.06-2.96-1.5-4.59-1.19l-3.32,.7c-.82,.15-1.59,.52-2.22,1.08-.61-.55-1.37-.92-2.18-1.07l-3.4-.71c-3.02-.55-5.91,1.45-6.46,4.47-.06,.33-.09,.66-.09,.99v9.89c0,2.68,1.91,4.98,4.54,5.46l5.87,1.16c.56,.1,1.14,.15,1.71,.15,.59,0,1.17-.05,1.75-.16l5.82-1.16c2.64-.48,4.56-2.78,4.56-5.46v-9.9c0-1.65-.73-3.21-2-4.27Zm-11.65,17.74l-5.5-1.09c-1.2-.22-2.07-1.26-2.07-2.49v-9.9c0-1.39,1.13-2.52,2.52-2.53,.14,0,.28,.01,.42,.04l3.4,.71c.72,.13,1.24,.76,1.24,1.49v13.76Zm10.61-3.57c0,1.23-.89,2.28-2.1,2.49l-5.48,1.08v-13.76c0-.75,.55-1.38,1.28-1.5l3.32-.69c1.37-.25,2.69,.66,2.94,2.03,.03,.15,.04,.3,.04,.45v9.9Z"/></g><g class="cls-2"><g id="_01_align_center"><path class="cls-1" d="M274.72,46.99v-11.07h18.44v11.07h-18.44Zm17.52-18.44h-2.77v-1.84h-1.84v1.84h-7.38v-1.84h-1.84v1.84h-2.77c-1.53,0-2.77,1.24-2.77,2.77v17.52h22.13V31.31c0-1.53-1.24-2.77-2.77-2.77Zm-17.52,2.77c0-.51,.41-.92,.92-.92h16.6c.51,0,.92,.41,.92,.92v2.77h-18.44v-2.77Z"/><rect class="cls-1" x="286.71" y="38.69" width="1.84" height="1.84"/><rect class="cls-1" x="283.02" y="38.69" width="1.84" height="1.84"/><rect class="cls-1" x="279.33" y="38.69" width="1.84" height="1.84"/><rect class="cls-1" x="286.71" y="42.38" width="1.84" height="1.84"/><rect class="cls-1" x="283.02" y="42.38" width="1.84" height="1.84"/><rect class="cls-1" x="279.33" y="42.38" width="1.84" height="1.84"/></g></g><g class="cls-3"><path class="cls-7" d="M38.31,32.23c-2.04,0-3.69,1.65-3.69,3.69s1.65,3.69,3.69,3.69,3.69-1.65,3.69-3.69-1.65-3.69-3.69-3.69Zm0,5.54c-1.02,0-1.85-.83-1.85-1.85s.83-1.85,1.85-1.85,1.85,.83,1.85,1.85-.83,1.85-1.85,1.85Z"/><path class="cls-7" d="M38.31,48.84c-1.58,0-3.06-.75-3.98-2.03-3.52-4.85-5.3-8.5-5.3-10.84,0-5.13,4.16-9.28,9.28-9.28,5.13,0,9.28,4.16,9.28,9.28,0,2.34-1.78,5.99-5.3,10.84-.92,1.28-2.4,2.04-3.98,2.03Zm0-20.14c-4.01,0-7.26,3.26-7.27,7.27,0,1.86,1.75,5.29,4.92,9.66,.94,1.3,2.76,1.59,4.06,.64,.25-.18,.46-.4,.64-.64,3.17-4.37,4.92-7.81,4.92-9.66,0-4.01-3.26-7.26-7.27-7.27Z"/></g><line class="cls-10" x1="389.12" y1="22.62" x2="389.12" y2="52.91"/><line class="cls-10" x1="255.41" y1="22.62" x2="255.41" y2="52.91"/><text class="cls-11" transform="translate(65.95 42.25)"><tspan x="0" y="0">Onde a mesa </tspan><tspan class="cls-4" x="82.46" y="0">v</tspan><tspan x="89.21" y="0">ai acontecer?</tspan></text><text class="cls-11" transform="translate(309.99 42.25)"><tspan x="0" y="0">Qual data?</tspan></text><text class="cls-11" transform="translate(448.11 42.43)"><tspan x="0" y="0">Qual tema?</tspan></text></g></g></svg>