<?xml version="1.0" encoding="UTF-8"?><svg id="Layer_2" xmlns="http://www.w3.org/2000/svg" viewBox="0 0 22.13 22.13"><defs><style>.cls-1{fill:#2db14a;}.cls-2{opacity:.51;}</style></defs><g id="Layer_3"><g class="cls-2"><g id="_01_align_center"><path class="cls-1" d="M1.84,20.29V9.22H20.29v11.07H1.84ZM19.37,1.84h-2.77V0h-1.84V1.84H7.38V0h-1.84V1.84H2.77C1.24,1.84,0,3.08,0,4.61V22.13H22.13V4.61c0-1.53-1.24-2.77-2.77-2.77ZM1.84,4.61c0-.51,.41-.92,.92-.92H19.37c.51,0,.92,.41,.92,.92v2.77H1.84v-2.77Z"/><rect class="cls-1" x="13.83" y="11.99" width="1.84" height="1.84"/><rect class="cls-1" x="10.14" y="11.99" width="1.84" height="1.84"/><rect class="cls-1" x="6.46" y="11.99" width="1.84" height="1.84"/><rect class="cls-1" x="13.83" y="15.68" width="1.84" height="1.84"/><rect class="cls-1" x="10.14" y="15.68" width="1.84" height="1.84"/><rect class="cls-1" x="6.46" y="15.68" width="1.84" height="1.84"/></g></g></g></svg>