<?xml version="1.0" encoding="UTF-8"?><svg id="Layer_2" xmlns="http://www.w3.org/2000/svg" viewBox="0 0 16.41 16.41"><defs><style>.cls-1{fill:#0f1316;}</style></defs><g id="Coisas"><path class="cls-1" d="M16.11,14.66l-3.18-3.18c2.38-3.18,1.73-7.68-1.45-10.05C8.31-.94,3.81-.3,1.43,2.88-.94,6.05-.3,10.55,2.88,12.93c2.55,1.91,6.05,1.91,8.6,0l3.18,3.18c.4,.4,1.05,.4,1.45,0,.4-.4,.4-1.05,0-1.45h0Zm-8.9-2.34c-2.82,0-5.11-2.29-5.11-5.11S4.39,2.1,7.21,2.1s5.11,2.29,5.11,5.11c0,2.82-2.29,5.11-5.11,5.11Z"/></g></svg>