<?xml version="1.0" encoding="UTF-8"?><svg id="Layer_2" xmlns="http://www.w3.org/2000/svg" xmlns:xlink="http://www.w3.org/1999/xlink" viewBox="0 0 75 75"><defs><style>.cls-1,.cls-2{fill:#7f54a0;}.cls-3{filter:url(#drop-shadow-1);}.cls-3,.cls-4{fill:#fff;}.cls-5{fill:none;stroke-linecap:round;stroke-linejoin:round;stroke-width:2px;}.cls-5,.cls-2{stroke:#fff;}.cls-2,.cls-4{stroke-miterlimit:10;}.cls-4{stroke:#7f54a0;}</style><filter id="drop-shadow-1" filterUnits="userSpaceOnUse"><feOffset dx="4" dy="3"/><feGaussianBlur result="blur" stdDeviation="4"/><feFlood flood-color="#000" flood-opacity=".75"/><feComposite in2="blur" operator="in"/><feComposite in="SourceGraphic"/></filter></defs><g id="Coisas"><g><circle class="cls-3" cx="33.67" cy="34.58" r="24.73"/><g><polygon class="cls-1" points="33.75 16.58 18.01 25.6 18.04 43.65 33.61 52.57 49.34 43.68 49.34 25.63 33.75 16.58"/><g><line class="cls-5" x1="49.54" y1="43.8" x2="49.54" y2="25.51"/><line class="cls-5" x1="33.75" y1="16.35" x2="17.81" y2="25.48"/><line class="cls-5" x1="33.75" y1="16.35" x2="23.86" y2="27.58"/><line class="cls-5" x1="33.75" y1="16.35" x2="49.54" y2="25.51"/><line class="cls-5" x1="43.45" y1="27.61" x2="49.54" y2="25.51"/><line class="cls-5" x1="33.75" y1="16.35" x2="43.45" y2="27.61"/><line class="cls-5" x1="17.81" y1="25.48" x2="17.84" y2="43.77"/><line class="cls-5" x1="17.81" y1="25.48" x2="23.86" y2="27.58"/><line class="cls-5" x1="43.45" y1="27.61" x2="23.86" y2="27.58"/><line class="cls-5" x1="43.45" y1="27.61" x2="49.54" y2="43.8"/><line class="cls-5" x1="23.86" y1="27.58" x2="17.84" y2="43.77"/><line class="cls-5" x1="33.61" y1="52.8" x2="49.54" y2="43.8"/><line class="cls-5" x1="49.54" y1="43.8" x2="33.64" y2="45.85"/><line class="cls-5" x1="17.84" y1="43.77" x2="33.61" y2="52.8"/><line class="cls-5" x1="33.64" y1="45.85" x2="17.84" y2="43.77"/><line class="cls-5" x1="33.64" y1="45.85" x2="33.61" y2="52.8"/></g><g><polygon class="cls-4" points="30.41 32.28 43.98 14.93 36.81 35.35 30.41 32.28"/><polygon class="cls-4" points="36.21 37.42 23.37 54.22 29.41 33.64 36.21 37.42"/><circle class="cls-2" cx="32.92" cy="35.35" r="3.9"/><polygon class="cls-1" points="36.45 24.89 39.89 26.67 43.81 15.34 36.45 24.89"/></g></g></g></g></svg>