<?xml version="1.0" encoding="UTF-8"?><svg id="Layer_2" xmlns="http://www.w3.org/2000/svg" viewBox="0 0 14.87 14.84"><defs><style>.cls-1{fill:#7f54a0;}</style></defs><g id="Camada_2"><g><path class="cls-1" d="M12.4,0H2.48C1.11,0,0,1.11,0,2.47v7.42c0,1.37,1.11,2.47,2.48,2.47h1.8l2.76,2.33c.23,.2,.57,.2,.8,0l2.76-2.33h1.8c1.37,0,2.48-1.11,2.48-2.47V2.47c0-1.37-1.11-2.47-2.48-2.47Zm1.24,9.9c0,.68-.55,1.24-1.24,1.24h-1.8c-.29,0-.58,.1-.8,.29l-2.36,1.99-2.36-1.99h0c-.22-.19-.51-.29-.8-.29h-1.8c-.68,0-1.24-.55-1.24-1.24V2.47c0-.68,.55-1.24,1.24-1.24H12.4c.68,0,1.24,.55,1.24,1.24v7.42Z"/><path class="cls-1" d="M4.34,4.33h3.1c.34,0,.62-.28,.62-.62s-.28-.62-.62-.62h-3.1c-.34,0-.62,.28-.62,.62s.28,.62,.62,.62Z"/><path class="cls-1" d="M10.54,5.57H4.34c-.34,0-.62,.28-.62,.62s.28,.62,.62,.62h6.2c.34,0,.62-.28,.62-.62s-.28-.62-.62-.62Z"/><path class="cls-1" d="M10.54,8.04H4.34c-.34,0-.62,.28-.62,.62s.28,.62,.62,.62h6.2c.34,0,.62-.28,.62-.62s-.28-.62-.62-.62Z"/></g></g></svg>