<?xml version="1.0" encoding="UTF-8"?><svg id="Layer_2" xmlns="http://www.w3.org/2000/svg" viewBox="0 0 23.15 23.15"><defs><style>.cls-1{fill:#ece962;}</style></defs><g id="Layer_3"><g><path class="cls-1" d="M.96,4.58H3.6c.52,1.92,2.5,3.05,4.41,2.53,1.23-.33,2.19-1.3,2.53-2.53h11.64c.53,0,.96-.43,.96-.96s-.43-.96-.96-.96H10.54C10.02,.74,8.05-.39,6.13,.13c-1.23,.33-2.19,1.3-2.53,2.53H.96c-.53,0-.96,.43-.96,.96s.43,.96,.96,.96ZM7.07,1.93c.93,0,1.69,.76,1.69,1.69s-.76,1.69-1.69,1.69-1.69-.76-1.69-1.69c0-.93,.76-1.69,1.69-1.69Z"/><path class="cls-1" d="M22.19,10.61h-2.64c-.52-1.92-2.49-3.05-4.41-2.53-1.23,.33-2.19,1.3-2.53,2.53H.96c-.53,0-.96,.43-.96,.96s.43,.96,.96,.96H12.61c.52,1.92,2.49,3.05,4.41,2.53,1.23-.33,2.19-1.3,2.53-2.53h2.64c.53,0,.96-.43,.96-.96s-.43-.96-.96-.96Zm-6.11,2.65c-.93,0-1.69-.76-1.69-1.69s.76-1.69,1.69-1.69,1.69,.76,1.69,1.69c0,.93-.76,1.69-1.69,1.69Z"/><path class="cls-1" d="M22.19,18.57H10.54c-.52-1.92-2.5-3.05-4.41-2.53-1.23,.33-2.19,1.3-2.53,2.53H.96c-.53,0-.96,.43-.96,.96s.43,.96,.96,.96H3.6c.52,1.92,2.5,3.05,4.41,2.53,1.23-.33,2.19-1.3,2.53-2.53h11.64c.53,0,.96-.43,.96-.96s-.43-.96-.96-.96Zm-15.11,2.65c-.93,0-1.69-.76-1.69-1.69s.76-1.69,1.69-1.69,1.69,.76,1.69,1.69c0,.93-.76,1.69-1.69,1.69Z"/></g></g></svg>