<?xml version="1.0" encoding="UTF-8"?><svg id="Layer_2" xmlns="http://www.w3.org/2000/svg" viewBox="0 0 33.73 44.44"><defs><style>.cls-1,.cls-2{fill:#7f54a0;}.cls-3{fill:none;stroke-linecap:round;stroke-linejoin:round;stroke-width:2px;}.cls-3,.cls-2{stroke:#fff;}.cls-2,.cls-4{stroke-miterlimit:10;}.cls-4{fill:#fff;stroke:#7f54a0;}</style></defs><g id="Layer_3"><g><polygon class="cls-1" points="16.94 4.35 1.2 13.37 1.23 31.42 16.81 40.34 32.53 31.45 32.53 13.4 16.94 4.35"/><g><line class="cls-3" x1="32.73" y1="31.57" x2="32.73" y2="13.28"/><line class="cls-3" x1="16.94" y1="4.12" x2="1" y2="13.25"/><line class="cls-3" x1="16.94" y1="4.12" x2="7.05" y2="15.35"/><line class="cls-3" x1="16.94" y1="4.12" x2="32.73" y2="13.28"/><line class="cls-3" x1="26.65" y1="15.38" x2="32.73" y2="13.28"/><line class="cls-3" x1="16.94" y1="4.12" x2="26.65" y2="15.38"/><line class="cls-3" x1="1" y1="13.25" x2="1.03" y2="31.54"/><line class="cls-3" x1="1" y1="13.25" x2="7.05" y2="15.35"/><line class="cls-3" x1="26.65" y1="15.38" x2="7.05" y2="15.35"/><line class="cls-3" x1="26.65" y1="15.38" x2="32.73" y2="31.57"/><line class="cls-3" x1="7.05" y1="15.35" x2="1.03" y2="31.54"/><line class="cls-3" x1="16.81" y1="40.57" x2="32.73" y2="31.57"/><line class="cls-3" x1="32.73" y1="31.57" x2="16.84" y2="33.62"/><line class="cls-3" x1="1.03" y1="31.54" x2="16.81" y2="40.57"/><line class="cls-3" x1="16.84" y1="33.62" x2="1.03" y2="31.54"/><line class="cls-3" x1="16.84" y1="33.62" x2="16.81" y2="40.57"/></g><g><polygon class="cls-4" points="13.6 20.05 27.17 2.7 20.01 23.12 13.6 20.05"/><polygon class="cls-4" points="19.41 25.19 6.56 41.99 12.61 21.41 19.41 25.19"/><circle class="cls-2" cx="16.11" cy="23.12" r="3.9"/><polygon class="cls-1" points="19.64 12.66 23.09 14.44 27 3.11 19.64 12.66"/></g></g></g></svg>