<?xml version="1.0" encoding="UTF-8"?><svg id="Layer_2" xmlns="http://www.w3.org/2000/svg" viewBox="0 0 667.55 54.53"><defs><style>.cls-1{fill:#2db34a;}</style></defs><g id="Layer_3"><g><path class="cls-1" d="M43.82,53.44h-11.97L11.39,17.51V53.44H0V1.09H14.86l17.57,29.99V1.09h11.39V53.44Z"/><path class="cls-1" d="M102.98,27.28c0,8.34-2.2,14.97-6.6,19.88-4.4,4.91-10.49,7.37-18.25,7.37s-13.82-2.45-18.22-7.37c-4.4-4.91-6.6-11.54-6.6-19.88s2.2-15.06,6.6-19.95c4.4-4.89,10.48-7.33,18.22-7.33s13.8,2.44,18.22,7.33,6.63,11.54,6.63,19.95Zm-16.47,13.25c1.21-1.59,2.1-3.47,2.69-5.64,.58-2.17,.87-4.72,.87-7.65,0-3.14-.33-5.81-1-8.02-.67-2.2-1.54-3.98-2.62-5.34-1.1-1.41-2.37-2.43-3.8-3.06s-2.93-.95-4.48-.95-3.06,.3-4.45,.91c-1.39,.61-2.67,1.62-3.84,3.02-1.08,1.31-1.96,3.12-2.64,5.43-.68,2.31-1.02,4.99-1.02,8.03s.33,5.77,.99,7.96c.66,2.19,1.53,3.98,2.61,5.36,1.08,1.38,2.34,2.4,3.79,3.06,1.45,.66,2.97,.98,4.56,.98s3.12-.33,4.56-1,2.71-1.71,3.79-3.11Z"/><path class="cls-1" d="M151.05,36.98c0,5.16-2.01,9.35-6.04,12.57-4.02,3.22-9.49,4.83-16.39,4.83-3.99,0-7.47-.38-10.44-1.14s-5.74-1.73-8.33-2.9v-12.55h1.36c2.57,2.23,5.44,3.94,8.63,5.13s6.24,1.79,9.18,1.79c.76,0,1.75-.07,2.98-.21s2.23-.37,3.01-.7c.95-.42,1.73-.95,2.35-1.58s.92-1.57,.92-2.81c0-1.15-.45-2.14-1.34-2.97-.9-.83-2.21-1.47-3.93-1.92-1.81-.47-3.73-.91-5.74-1.32-2.02-.41-3.91-.93-5.68-1.56-4.06-1.43-6.97-3.37-8.75-5.82-1.78-2.45-2.67-5.49-2.67-9.12,0-4.87,2.01-8.85,6.04-11.94C120.2,1.68,125.37,.14,131.69,.14c3.17,0,6.31,.33,9.4,1s5.78,1.51,8.04,2.51V15.71h-1.33c-1.94-1.69-4.32-3.1-7.14-4.24-2.82-1.14-5.69-1.71-8.63-1.71-1.04,0-2.07,.08-3.09,.23-1.02,.15-2.01,.44-2.96,.86-.84,.35-1.56,.89-2.17,1.6-.6,.72-.91,1.53-.91,2.44,0,1.38,.49,2.44,1.46,3.18s2.8,1.41,5.5,2.02c1.77,.4,3.47,.79,5.1,1.16,1.63,.38,3.38,.89,5.26,1.55,3.69,1.31,6.41,3.1,8.17,5.36,1.76,2.26,2.64,5.2,2.64,8.81Z"/><path class="cls-1" d="M198.14,36.98c0,5.16-2.01,9.35-6.04,12.57-4.02,3.22-9.49,4.83-16.39,4.83-3.99,0-7.47-.38-10.44-1.14s-5.74-1.73-8.33-2.9v-12.55h1.36c2.57,2.23,5.44,3.94,8.63,5.13s6.24,1.79,9.18,1.79c.76,0,1.75-.07,2.98-.21s2.23-.37,3.01-.7c.95-.42,1.73-.95,2.35-1.58s.92-1.57,.92-2.81c0-1.15-.45-2.14-1.34-2.97-.9-.83-2.21-1.47-3.93-1.92-1.81-.47-3.73-.91-5.74-1.32-2.02-.41-3.91-.93-5.68-1.56-4.06-1.43-6.97-3.37-8.75-5.82-1.78-2.45-2.67-5.49-2.67-9.12,0-4.87,2.01-8.85,6.04-11.94,4.02-3.08,9.2-4.62,15.52-4.62,3.17,0,6.31,.33,9.4,1s5.78,1.51,8.04,2.51V15.71h-1.33c-1.94-1.69-4.32-3.1-7.14-4.24-2.82-1.14-5.69-1.71-8.63-1.71-1.04,0-2.07,.08-3.09,.23-1.02,.15-2.01,.44-2.96,.86-.84,.35-1.56,.89-2.17,1.6-.6,.72-.91,1.53-.91,2.44,0,1.38,.49,2.44,1.46,3.18s2.8,1.41,5.5,2.02c1.77,.4,3.47,.79,5.1,1.16,1.63,.38,3.38,.89,5.26,1.55,3.69,1.31,6.41,3.1,8.17,5.36,1.76,2.26,2.64,5.2,2.64,8.81Z"/><path class="cls-1" d="M253.51,27.28c0,8.34-2.2,14.97-6.6,19.88-4.4,4.91-10.49,7.37-18.25,7.37s-13.82-2.45-18.22-7.37c-4.4-4.91-6.6-11.54-6.6-19.88s2.2-15.06,6.6-19.95c4.4-4.89,10.48-7.33,18.22-7.33s13.8,2.44,18.22,7.33,6.63,11.54,6.63,19.95Zm-16.47,13.25c1.21-1.59,2.1-3.47,2.69-5.64,.58-2.17,.87-4.72,.87-7.65,0-3.14-.33-5.81-1-8.02-.67-2.2-1.54-3.98-2.62-5.34-1.1-1.41-2.37-2.43-3.8-3.06s-2.93-.95-4.48-.95-3.06,.3-4.45,.91c-1.39,.61-2.67,1.62-3.84,3.02-1.08,1.31-1.96,3.12-2.64,5.43-.68,2.31-1.02,4.99-1.02,8.03s.33,5.77,.99,7.96c.66,2.19,1.53,3.98,2.61,5.36,1.08,1.38,2.34,2.4,3.79,3.06,1.45,.66,2.97,.98,4.56,.98s3.12-.33,4.56-1,2.71-1.71,3.79-3.11Z"/><path class="cls-1" d="M307.43,54.46c-3.58,0-6.89-.57-9.92-1.72s-5.64-2.86-7.82-5.13c-2.18-2.27-3.87-5.11-5.07-8.51-1.2-3.4-1.8-7.32-1.8-11.78,0-4.15,.57-7.91,1.72-11.29s2.8-6.27,4.98-8.68c2.09-2.32,4.69-4.11,7.78-5.38s6.48-1.9,10.15-1.9c2.03,0,3.86,.12,5.49,.37s3.13,.57,4.51,.97c1.45,.45,2.76,.94,3.93,1.49,1.18,.55,2.21,1.06,3.09,1.53v12.69h-1.42c-.6-.56-1.36-1.22-2.28-1.99-.92-.77-1.96-1.53-3.12-2.27-1.19-.75-2.47-1.38-3.85-1.89-1.38-.51-2.86-.77-4.43-.77-1.75,0-3.41,.3-4.98,.89-1.58,.6-3.03,1.58-4.37,2.96-1.27,1.33-2.3,3.1-3.09,5.3-.79,2.2-1.18,4.86-1.18,8s.43,6.01,1.28,8.21c.85,2.2,1.93,3.93,3.22,5.19,1.32,1.29,2.78,2.21,4.4,2.75,1.62,.55,3.21,.82,4.79,.82s3-.24,4.48-.73c1.48-.49,2.84-1.15,4.09-1.99,1.06-.68,2.04-1.4,2.95-2.17,.91-.77,1.65-1.43,2.23-1.99h1.29v12.52c-1.21,.59-2.36,1.14-3.46,1.65-1.1,.52-2.25,.96-3.46,1.34-1.58,.49-3.05,.87-4.43,1.12-1.38,.26-3.28,.39-5.7,.39Z"/><path class="cls-1" d="M380.48,27.28c0,8.34-2.2,14.97-6.6,19.88-4.4,4.91-10.49,7.37-18.25,7.37s-13.82-2.45-18.22-7.37c-4.4-4.91-6.6-11.54-6.6-19.88s2.2-15.06,6.6-19.95,10.48-7.33,18.22-7.33,13.8,2.44,18.22,7.33,6.63,11.54,6.63,19.95Zm-16.47,13.25c1.21-1.59,2.1-3.47,2.69-5.64,.58-2.17,.87-4.72,.87-7.65,0-3.14-.33-5.81-1-8.02-.67-2.2-1.54-3.98-2.62-5.34-1.1-1.41-2.37-2.43-3.8-3.06s-2.93-.95-4.48-.95-3.06,.3-4.45,.91c-1.39,.61-2.67,1.62-3.84,3.02-1.08,1.31-1.96,3.12-2.64,5.43-.68,2.31-1.02,4.99-1.02,8.03s.33,5.77,.99,7.96c.66,2.19,1.53,3.98,2.61,5.36,1.08,1.38,2.34,2.4,3.79,3.06,1.45,.66,2.97,.98,4.56,.98s3.12-.33,4.56-1,2.71-1.71,3.79-3.11Z"/><path class="cls-1" d="M433.78,53.44h-11.97l-20.45-35.93V53.44h-11.39V1.09h14.86l17.57,29.99V1.09h11.39V53.44Z"/><path class="cls-1" d="M467.86,54.46c-3.58,0-6.89-.57-9.92-1.72s-5.64-2.86-7.82-5.13c-2.18-2.27-3.87-5.11-5.07-8.51-1.2-3.4-1.8-7.32-1.8-11.78,0-4.15,.57-7.91,1.72-11.29,1.14-3.38,2.8-6.27,4.98-8.68,2.09-2.32,4.69-4.11,7.78-5.38s6.48-1.9,10.15-1.9c2.03,0,3.86,.12,5.49,.37s3.13,.57,4.51,.97c1.45,.45,2.76,.94,3.93,1.49,1.18,.55,2.21,1.06,3.09,1.53v12.69h-1.42c-.6-.56-1.36-1.22-2.28-1.99-.92-.77-1.96-1.53-3.12-2.27-1.19-.75-2.47-1.38-3.85-1.89-1.38-.51-2.86-.77-4.43-.77-1.75,0-3.41,.3-4.98,.89-1.58,.6-3.03,1.58-4.37,2.96-1.27,1.33-2.3,3.1-3.09,5.3-.79,2.2-1.18,4.86-1.18,8s.43,6.01,1.28,8.21c.85,2.2,1.93,3.93,3.22,5.19,1.32,1.29,2.78,2.21,4.4,2.75,1.62,.55,3.21,.82,4.79,.82s3-.24,4.48-.73c1.48-.49,2.84-1.15,4.09-1.99,1.06-.68,2.04-1.4,2.95-2.17,.91-.77,1.65-1.43,2.23-1.99h1.29v12.52c-1.21,.59-2.36,1.14-3.46,1.65-1.1,.52-2.25,.96-3.46,1.34-1.58,.49-3.05,.87-4.43,1.12-1.38,.26-3.28,.39-5.7,.39Z"/><path class="cls-1" d="M528.9,53.44h-34.86V1.09h34.86V11.21h-22.49v9.04h20.88v10.12h-20.88v12.94h22.49v10.12Z"/><path class="cls-1" d="M565.38,53.44h-28.22v-9.28h7.9V10.37h-7.9V1.09h28.22V10.37h-7.9V44.16h7.9v9.28Z"/><path class="cls-1" d="M613.21,11.21h-15.05V53.44h-12.43V11.21h-15.05V1.09h42.53V11.21Z"/><path class="cls-1" d="M667.55,27.28c0,8.34-2.2,14.97-6.6,19.88-4.4,4.91-10.49,7.37-18.25,7.37s-13.82-2.45-18.22-7.37c-4.4-4.91-6.6-11.54-6.6-19.88s2.2-15.06,6.6-19.95,10.48-7.33,18.22-7.33,13.8,2.44,18.22,7.33,6.63,11.54,6.63,19.95Zm-16.47,13.25c1.21-1.59,2.1-3.47,2.69-5.64,.58-2.17,.87-4.72,.87-7.65,0-3.14-.33-5.81-1-8.02-.67-2.2-1.54-3.98-2.62-5.34-1.1-1.41-2.37-2.43-3.8-3.06s-2.93-.95-4.48-.95-3.06,.3-4.45,.91c-1.39,.61-2.67,1.62-3.84,3.02-1.08,1.31-1.96,3.12-2.64,5.43-.68,2.31-1.02,4.99-1.02,8.03s.33,5.77,.99,7.96c.66,2.19,1.53,3.98,2.61,5.36,1.08,1.38,2.34,2.4,3.79,3.06,1.45,.66,2.97,.98,4.56,.98s3.12-.33,4.56-1,2.71-1.71,3.79-3.11Z"/></g></g></svg>