<?xml version="1.0" encoding="UTF-8"?><svg id="Layer_2" xmlns="http://www.w3.org/2000/svg" viewBox="0 0 551.38 314.55"><defs><style>.cls-1{opacity:.88;}.cls-2{fill:#2db34a;}.cls-3{fill:#4cbf8a;}.cls-4{fill:#5bc5a9;}.cls-5{opacity:.69;}.cls-6{opacity:.75;}.cls-7{fill:#7ad1e9;}.cls-8{opacity:.94;}.cls-9{opacity:.81;}.cls-10{fill:#3cb96a;}.cls-11{fill:#6bcbc9;}</style></defs><g id="Layer_3"><g><g class="cls-5"><path class="cls-7" d="M37.39,313.72h-9.87l-16.86-27.26v27.26H1.28v-39.71H13.52l14.48,22.75v-22.75h9.39v39.71Z"/><path class="cls-7" d="M72.57,303.93c1-1.21,1.73-2.64,2.21-4.28s.72-3.58,.72-5.8c0-2.38-.28-4.41-.83-6.08-.55-1.67-1.27-3.02-2.16-4.05-.91-1.07-1.95-1.84-3.13-2.32s-2.41-.72-3.69-.72-2.52,.23-3.67,.69-2.2,1.23-3.16,2.29c-.89,1-1.61,2.37-2.17,4.12-.56,1.75-.84,3.78-.84,6.09s.27,4.38,.81,6.04c.54,1.66,1.26,3.02,2.15,4.07,.89,1.05,1.93,1.82,3.12,2.32,1.19,.5,2.44,.75,3.76,.75s2.57-.25,3.76-.76c1.19-.51,2.23-1.29,3.12-2.36Zm13.58-10.05c0,6.33-1.81,11.36-5.44,15.08-3.63,3.73-8.64,5.59-15.04,5.59s-11.39-1.86-15.02-5.59c-3.63-3.72-5.44-8.75-5.44-15.08s1.81-11.43,5.44-15.14c3.63-3.71,8.63-5.56,15.02-5.56s11.37,1.85,15.02,5.56c3.64,3.71,5.47,8.75,5.47,15.14Z"/><path class="cls-7" d="M125.75,301.24c0,3.91-1.66,7.09-4.97,9.53-3.32,2.45-7.82,3.67-13.51,3.67-3.29,0-6.16-.29-8.6-.87-2.44-.58-4.73-1.31-6.87-2.2v-9.52h1.12c2.12,1.69,4.48,2.99,7.11,3.89s5.14,1.36,7.56,1.36c.62,0,1.44-.05,2.45-.16s1.84-.28,2.48-.53c.78-.32,1.43-.72,1.93-1.2s.76-1.19,.76-2.13c0-.87-.37-1.62-1.11-2.25s-1.82-1.12-3.24-1.45c-1.49-.36-3.07-.69-4.73-1s-3.22-.71-4.68-1.19c-3.34-1.08-5.75-2.56-7.21-4.41-1.47-1.86-2.2-4.17-2.2-6.92,0-3.7,1.66-6.72,4.97-9.06,3.32-2.34,7.58-3.51,12.79-3.51,2.61,0,5.2,.25,7.75,.76,2.55,.51,4.76,1.14,6.63,1.91v9.15h-1.09c-1.6-1.28-3.56-2.35-5.88-3.21-2.32-.86-4.69-1.29-7.11-1.29-.85,0-1.7,.06-2.55,.17s-1.66,.33-2.44,.65c-.69,.27-1.29,.67-1.79,1.21-.5,.54-.75,1.16-.75,1.85,0,1.05,.4,1.85,1.2,2.41,.8,.56,2.31,1.07,4.53,1.53,1.46,.3,2.86,.6,4.2,.88s2.79,.68,4.33,1.17c3.04,1,5.28,2.35,6.73,4.07,1.45,1.72,2.17,3.94,2.17,6.68Z"/><path class="cls-7" d="M164.55,301.24c0,3.91-1.66,7.09-4.97,9.53-3.32,2.45-7.82,3.67-13.51,3.67-3.29,0-6.16-.29-8.6-.87-2.44-.58-4.73-1.31-6.87-2.2v-9.52h1.12c2.12,1.69,4.48,2.99,7.11,3.89,2.62,.91,5.14,1.36,7.56,1.36,.62,0,1.44-.05,2.45-.16s1.84-.28,2.48-.53c.78-.32,1.43-.72,1.93-1.2s.76-1.19,.76-2.13c0-.87-.37-1.62-1.11-2.25s-1.82-1.12-3.24-1.45c-1.49-.36-3.07-.69-4.73-1s-3.22-.71-4.68-1.19c-3.34-1.08-5.75-2.56-7.21-4.41s-2.2-4.17-2.2-6.92c0-3.7,1.66-6.72,4.97-9.06,3.32-2.34,7.58-3.51,12.79-3.51,2.61,0,5.2,.25,7.75,.76,2.55,.51,4.76,1.14,6.63,1.91v9.15h-1.09c-1.6-1.28-3.56-2.35-5.88-3.21s-4.69-1.29-7.11-1.29c-.85,0-1.7,.06-2.55,.17s-1.66,.33-2.44,.65c-.69,.27-1.29,.67-1.79,1.21-.5,.54-.75,1.16-.75,1.85,0,1.05,.4,1.85,1.2,2.41,.8,.56,2.31,1.07,4.53,1.53,1.46,.3,2.86,.6,4.2,.88s2.79,.68,4.33,1.17c3.04,1,5.28,2.35,6.73,4.07,1.45,1.72,2.17,3.94,2.17,6.68Z"/><path class="cls-7" d="M196.61,303.93c1-1.21,1.73-2.64,2.21-4.28,.48-1.64,.72-3.58,.72-5.8,0-2.38-.28-4.41-.83-6.08-.55-1.67-1.27-3.02-2.16-4.05-.91-1.07-1.95-1.84-3.13-2.32s-2.41-.72-3.69-.72-2.52,.23-3.67,.69-2.2,1.23-3.16,2.29c-.89,1-1.61,2.37-2.17,4.12-.56,1.75-.84,3.78-.84,6.09s.27,4.38,.81,6.04c.54,1.66,1.26,3.02,2.15,4.07,.89,1.05,1.93,1.82,3.12,2.32,1.19,.5,2.44,.75,3.76,.75s2.57-.25,3.76-.76c1.19-.51,2.23-1.29,3.12-2.36Zm13.58-10.05c0,6.33-1.81,11.36-5.44,15.08-3.63,3.73-8.64,5.59-15.04,5.59s-11.39-1.86-15.02-5.59c-3.63-3.72-5.44-8.75-5.44-15.08s1.81-11.43,5.44-15.14c3.63-3.71,8.63-5.56,15.02-5.56s11.37,1.85,15.02,5.56c3.64,3.71,5.47,8.75,5.47,15.14Z"/><path class="cls-7" d="M254.62,314.5c-2.95,0-5.68-.44-8.17-1.31s-4.64-2.17-6.44-3.89c-1.8-1.72-3.19-3.88-4.17-6.45-.99-2.58-1.48-5.56-1.48-8.93,0-3.15,.47-6,1.41-8.56,.94-2.56,2.31-4.76,4.11-6.59,1.72-1.76,3.86-3.12,6.41-4.08s5.34-1.44,8.36-1.44c1.67,0,3.18,.09,4.52,.28,1.34,.19,2.58,.43,3.72,.73,1.19,.34,2.27,.72,3.24,1.13s1.82,.8,2.55,1.16v9.63h-1.17c-.5-.42-1.13-.93-1.88-1.51s-1.61-1.16-2.57-1.73c-.98-.57-2.04-1.04-3.17-1.43-1.14-.39-2.36-.58-3.65-.58-1.44,0-2.81,.23-4.11,.68-1.3,.45-2.5,1.2-3.6,2.25-1.05,1.01-1.9,2.35-2.55,4.02-.65,1.67-.97,3.69-.97,6.07s.35,4.56,1.05,6.23c.7,1.67,1.59,2.98,2.65,3.94,1.08,.98,2.29,1.67,3.63,2.09s2.65,.63,3.95,.63,2.48-.19,3.69-.56,2.34-.88,3.37-1.51c.87-.51,1.68-1.06,2.43-1.65s1.36-1.09,1.84-1.51h1.07v9.49c-1,.44-1.95,.86-2.85,1.25s-1.86,.73-2.85,1.01c-1.3,.37-2.52,.66-3.65,.85-1.14,.2-2.7,.29-4.69,.29Z"/><path class="cls-7" d="M301.24,303.93c1-1.21,1.73-2.64,2.21-4.28s.72-3.58,.72-5.8c0-2.38-.28-4.41-.83-6.08-.55-1.67-1.27-3.02-2.16-4.05-.91-1.07-1.95-1.84-3.13-2.32s-2.41-.72-3.69-.72-2.52,.23-3.67,.69-2.2,1.23-3.16,2.29c-.89,1-1.61,2.37-2.17,4.12-.56,1.75-.84,3.78-.84,6.09s.27,4.38,.81,6.04c.54,1.66,1.26,3.02,2.15,4.07,.89,1.05,1.93,1.82,3.12,2.32,1.19,.5,2.44,.75,3.76,.75s2.57-.25,3.76-.76c1.19-.51,2.23-1.29,3.12-2.36Zm13.58-10.05c0,6.33-1.81,11.36-5.44,15.08-3.63,3.73-8.64,5.59-15.04,5.59s-11.39-1.86-15.02-5.59c-3.63-3.72-5.44-8.75-5.44-15.08s1.81-11.43,5.44-15.14c3.63-3.71,8.63-5.56,15.02-5.56s11.37,1.85,15.02,5.56c3.64,3.71,5.47,8.75,5.47,15.14Z"/><path class="cls-7" d="M358.74,313.72h-9.87l-16.86-27.26v27.26h-9.39v-39.71h12.24l14.48,22.75v-22.75h9.39v39.71Z"/><path class="cls-7" d="M386.82,314.5c-2.95,0-5.68-.44-8.17-1.31-2.5-.87-4.64-2.17-6.44-3.89-1.8-1.72-3.19-3.88-4.17-6.45s-1.48-5.56-1.48-8.93c0-3.15,.47-6,1.41-8.56,.94-2.56,2.31-4.76,4.11-6.59,1.72-1.76,3.86-3.12,6.41-4.08s5.34-1.44,8.36-1.44c1.67,0,3.18,.09,4.52,.28,1.34,.19,2.58,.43,3.72,.73,1.19,.34,2.27,.72,3.24,1.13s1.82,.8,2.55,1.16v9.63h-1.17c-.5-.42-1.13-.93-1.88-1.51s-1.61-1.16-2.57-1.73c-.98-.57-2.04-1.04-3.17-1.43-1.14-.39-2.36-.58-3.65-.58-1.44,0-2.81,.23-4.11,.68-1.3,.45-2.5,1.2-3.6,2.25-1.05,1.01-1.9,2.35-2.55,4.02-.65,1.67-.97,3.69-.97,6.07s.35,4.56,1.05,6.23c.7,1.67,1.59,2.98,2.65,3.94,1.08,.98,2.29,1.67,3.63,2.09s2.65,.63,3.95,.63,2.48-.19,3.69-.56c1.22-.37,2.34-.88,3.37-1.51,.87-.51,1.68-1.06,2.43-1.65s1.36-1.09,1.84-1.51h1.07v9.49c-1,.44-1.95,.86-2.85,1.25s-1.86,.73-2.85,1.01c-1.3,.37-2.52,.66-3.65,.85-1.14,.2-2.7,.29-4.69,.29Z"/><path class="cls-7" d="M437.13,313.72h-28.72v-39.71h28.72v7.68h-18.54v6.85h17.2v7.68h-17.2v9.81h18.54v7.68Z"/><path class="cls-7" d="M467.18,313.72h-23.26v-7.04h6.51v-25.63h-6.51v-7.04h23.26v7.04h-6.51v25.63h6.51v7.04Z"/><path class="cls-7" d="M506.6,281.69h-12.4v32.03h-10.24v-32.03h-12.4v-7.68h35.05v7.68Z"/><path class="cls-7" d="M537.81,303.93c1-1.21,1.73-2.64,2.21-4.28s.72-3.58,.72-5.8c0-2.38-.28-4.41-.83-6.08-.55-1.67-1.27-3.02-2.16-4.05-.91-1.07-1.95-1.84-3.13-2.32s-2.41-.72-3.69-.72-2.52,.23-3.67,.69-2.2,1.23-3.16,2.29c-.89,1-1.61,2.37-2.17,4.12-.56,1.75-.84,3.78-.84,6.09s.27,4.38,.81,6.04c.54,1.66,1.26,3.02,2.15,4.07,.89,1.05,1.93,1.82,3.12,2.32,1.19,.5,2.44,.75,3.76,.75s2.57-.25,3.76-.76c1.19-.51,2.23-1.29,3.12-2.36Zm13.58-10.05c0,6.33-1.81,11.36-5.44,15.08-3.63,3.73-8.64,5.59-15.04,5.59s-11.39-1.86-15.02-5.59c-3.63-3.72-5.44-8.75-5.44-15.08s1.81-11.43,5.44-15.14c3.63-3.71,8.63-5.56,15.02-5.56s11.37,1.85,15.02,5.56c3.64,3.71,5.47,8.75,5.47,15.14Z"/></g><g class="cls-6"><polygon class="cls-11" points="37.13 259.08 27.26 259.08 10.41 231.83 10.41 259.08 1.02 259.08 1.02 219.37 13.26 219.37 27.74 242.12 27.74 219.37 37.13 219.37 37.13 259.08"/><path class="cls-11" d="M72.3,249.29c1-1.21,1.73-2.64,2.21-4.28s.72-3.58,.72-5.8c0-2.38-.28-4.41-.83-6.08-.55-1.67-1.27-3.02-2.16-4.05s-1.95-1.84-3.13-2.32-2.41-.72-3.69-.72-2.52,.23-3.67,.69c-1.15,.46-2.2,1.23-3.16,2.29-.89,1-1.61,2.37-2.17,4.12-.56,1.75-.84,3.78-.84,6.09s.27,4.38,.81,6.04c.54,1.66,1.26,3.02,2.15,4.07,.89,1.05,1.93,1.82,3.12,2.32,1.19,.5,2.44,.75,3.76,.75s2.57-.25,3.76-.76c1.19-.51,2.23-1.29,3.12-2.36Zm13.57-10.05c0,6.33-1.81,11.36-5.44,15.08-3.63,3.73-8.64,5.59-15.04,5.59s-11.39-1.86-15.01-5.59c-3.63-3.72-5.44-8.75-5.44-15.08s1.81-11.43,5.44-15.13c3.63-3.71,8.63-5.56,15.01-5.56s11.37,1.85,15.01,5.56c3.64,3.71,5.47,8.75,5.47,15.13Z"/><path class="cls-11" d="M125.48,246.6c0,3.91-1.66,7.09-4.97,9.53-3.32,2.45-7.82,3.67-13.51,3.67-3.29,0-6.16-.29-8.6-.87-2.44-.58-4.73-1.31-6.87-2.2v-9.52h1.12c2.12,1.69,4.48,2.99,7.11,3.89,2.62,.91,5.14,1.36,7.56,1.36,.62,0,1.44-.05,2.45-.16s1.84-.28,2.48-.53c.79-.31,1.43-.72,1.93-1.2,.51-.48,.76-1.19,.76-2.13,0-.87-.37-1.62-1.11-2.25s-1.82-1.12-3.24-1.45c-1.49-.36-3.07-.69-4.73-1-1.66-.31-3.22-.71-4.68-1.19-3.34-1.08-5.75-2.56-7.21-4.41-1.47-1.86-2.2-4.16-2.2-6.92,0-3.7,1.66-6.72,4.97-9.05,3.32-2.34,7.58-3.51,12.79-3.51,2.61,0,5.2,.25,7.75,.76,2.55,.51,4.76,1.14,6.63,1.91v9.15h-1.09c-1.6-1.28-3.56-2.35-5.88-3.21-2.32-.86-4.69-1.29-7.11-1.29-.85,0-1.7,.06-2.55,.17s-1.65,.34-2.44,.65c-.69,.27-1.29,.67-1.79,1.21-.5,.54-.75,1.16-.75,1.85,0,1.05,.4,1.85,1.2,2.41,.8,.56,2.31,1.07,4.53,1.53,1.46,.3,2.86,.6,4.2,.88s2.79,.68,4.33,1.17c3.04,1,5.28,2.35,6.73,4.07,1.45,1.72,2.17,3.94,2.17,6.68Z"/><path class="cls-11" d="M164.28,246.6c0,3.91-1.66,7.09-4.97,9.53-3.32,2.45-7.82,3.67-13.51,3.67-3.29,0-6.16-.29-8.6-.87-2.44-.58-4.73-1.31-6.87-2.2v-9.52h1.12c2.12,1.69,4.48,2.99,7.11,3.89,2.62,.91,5.14,1.36,7.56,1.36,.62,0,1.44-.05,2.45-.16s1.84-.28,2.48-.53c.79-.31,1.43-.72,1.93-1.2,.51-.48,.76-1.19,.76-2.13,0-.87-.37-1.62-1.11-2.25s-1.82-1.12-3.24-1.45c-1.49-.36-3.07-.69-4.73-1-1.66-.31-3.22-.71-4.68-1.19-3.34-1.08-5.75-2.56-7.21-4.41-1.47-1.86-2.2-4.16-2.2-6.92,0-3.7,1.66-6.72,4.97-9.05,3.32-2.34,7.58-3.51,12.79-3.51,2.61,0,5.2,.25,7.75,.76,2.55,.51,4.76,1.14,6.63,1.91v9.15h-1.09c-1.6-1.28-3.56-2.35-5.88-3.21-2.32-.86-4.69-1.29-7.11-1.29-.85,0-1.7,.06-2.55,.17s-1.65,.34-2.44,.65c-.69,.27-1.29,.67-1.79,1.21-.5,.54-.75,1.16-.75,1.85,0,1.05,.4,1.85,1.2,2.41,.8,.56,2.31,1.07,4.53,1.53,1.46,.3,2.86,.6,4.2,.88s2.79,.68,4.33,1.17c3.04,1,5.28,2.35,6.73,4.07,1.45,1.72,2.17,3.94,2.17,6.68Z"/><path class="cls-11" d="M196.33,249.29c1-1.21,1.73-2.64,2.21-4.28s.72-3.58,.72-5.8c0-2.38-.28-4.41-.83-6.08-.55-1.67-1.27-3.02-2.16-4.05s-1.95-1.84-3.13-2.32-2.41-.72-3.69-.72-2.52,.23-3.67,.69c-1.15,.46-2.2,1.23-3.16,2.29-.89,1-1.61,2.37-2.17,4.12-.56,1.75-.84,3.78-.84,6.09s.27,4.38,.81,6.04c.54,1.66,1.26,3.02,2.15,4.07,.89,1.05,1.93,1.82,3.12,2.32,1.19,.5,2.44,.75,3.76,.75s2.57-.25,3.76-.76c1.19-.51,2.23-1.29,3.12-2.36Zm13.57-10.05c0,6.33-1.81,11.36-5.44,15.08-3.63,3.73-8.64,5.59-15.04,5.59s-11.39-1.86-15.01-5.59c-3.63-3.72-5.44-8.75-5.44-15.08s1.81-11.43,5.44-15.13c3.63-3.71,8.63-5.56,15.01-5.56s11.37,1.85,15.01,5.56c3.64,3.71,5.47,8.75,5.47,15.13Z"/><path class="cls-11" d="M254.34,259.85c-2.95,0-5.68-.44-8.17-1.31-2.5-.87-4.64-2.17-6.44-3.89-1.8-1.72-3.19-3.88-4.17-6.45-.99-2.58-1.48-5.56-1.48-8.93,0-3.15,.47-6,1.41-8.56,.94-2.56,2.31-4.76,4.11-6.59,1.72-1.76,3.86-3.12,6.41-4.08,2.55-.96,5.34-1.44,8.36-1.44,1.67,0,3.18,.09,4.52,.28,1.34,.19,2.59,.42,3.72,.73,1.19,.33,2.27,.72,3.24,1.13,.97,.42,1.82,.8,2.55,1.16v9.63h-1.17c-.5-.42-1.12-.93-1.88-1.51-.76-.58-1.61-1.16-2.57-1.73s-2.04-1.04-3.17-1.43c-1.14-.39-2.36-.58-3.65-.58-1.44,0-2.81,.23-4.11,.68-1.3,.45-2.5,1.2-3.6,2.25s-1.9,2.35-2.55,4.02c-.65,1.67-.97,3.69-.97,6.07s.35,4.56,1.05,6.23c.7,1.67,1.59,2.98,2.65,3.94,1.08,.98,2.29,1.67,3.63,2.09s2.65,.63,3.95,.63,2.48-.19,3.69-.56c1.22-.37,2.34-.89,3.37-1.51,.86-.52,1.68-1.06,2.43-1.65,.75-.58,1.36-1.09,1.84-1.51h1.07v9.49c-1,.44-1.95,.86-2.85,1.25s-1.86,.73-2.85,1.01c-1.3,.37-2.52,.66-3.65,.85-1.14,.2-2.7,.29-4.69,.29Z"/><path class="cls-11" d="M300.95,249.29c1-1.21,1.73-2.64,2.21-4.28s.72-3.58,.72-5.8c0-2.38-.28-4.41-.83-6.08-.55-1.67-1.27-3.02-2.16-4.05s-1.95-1.84-3.13-2.32-2.41-.72-3.69-.72-2.52,.23-3.67,.69c-1.15,.46-2.2,1.23-3.16,2.29-.89,1-1.61,2.37-2.17,4.12-.56,1.75-.84,3.78-.84,6.09s.27,4.38,.81,6.04c.54,1.66,1.26,3.02,2.15,4.07,.89,1.05,1.93,1.82,3.12,2.32,1.19,.5,2.44,.75,3.76,.75s2.57-.25,3.76-.76c1.19-.51,2.23-1.29,3.12-2.36Zm13.57-10.05c0,6.33-1.81,11.36-5.44,15.08-3.63,3.73-8.64,5.59-15.04,5.59s-11.39-1.86-15.01-5.59c-3.63-3.72-5.44-8.75-5.44-15.08s1.81-11.43,5.44-15.13c3.63-3.71,8.63-5.56,15.01-5.56s11.37,1.85,15.01,5.56c3.64,3.71,5.47,8.75,5.47,15.13Z"/><polygon class="cls-11" points="358.45 259.08 348.58 259.08 331.73 231.83 331.73 259.08 322.34 259.08 322.34 219.37 334.58 219.37 349.06 242.12 349.06 219.37 358.45 219.37 358.45 259.08"/><path class="cls-11" d="M386.53,259.85c-2.95,0-5.68-.44-8.17-1.31-2.5-.87-4.64-2.17-6.44-3.89-1.8-1.72-3.19-3.88-4.17-6.45-.99-2.58-1.48-5.56-1.48-8.93,0-3.15,.47-6,1.41-8.56,.94-2.56,2.31-4.76,4.11-6.59,1.72-1.76,3.86-3.12,6.41-4.08,2.55-.96,5.34-1.44,8.36-1.44,1.67,0,3.18,.09,4.52,.28,1.34,.19,2.59,.42,3.72,.73,1.19,.33,2.27,.72,3.24,1.13,.97,.42,1.82,.8,2.55,1.16v9.63h-1.17c-.5-.42-1.12-.93-1.88-1.51-.76-.58-1.61-1.16-2.57-1.73s-2.04-1.04-3.17-1.43c-1.14-.39-2.36-.58-3.65-.58-1.44,0-2.81,.23-4.11,.68-1.3,.45-2.5,1.2-3.6,2.25s-1.9,2.35-2.55,4.02c-.65,1.67-.97,3.69-.97,6.07s.35,4.56,1.05,6.23c.7,1.67,1.59,2.98,2.65,3.94,1.08,.98,2.29,1.67,3.63,2.09s2.65,.63,3.95,.63,2.48-.19,3.69-.56c1.22-.37,2.34-.89,3.37-1.51,.86-.52,1.68-1.06,2.43-1.65,.75-.58,1.36-1.09,1.84-1.51h1.07v9.49c-1,.44-1.95,.86-2.85,1.25s-1.86,.73-2.85,1.01c-1.3,.37-2.52,.66-3.65,.85-1.14,.2-2.7,.29-4.69,.29Z"/><polygon class="cls-11" points="436.82 259.08 408.1 259.08 408.1 219.37 436.82 219.37 436.82 227.05 418.29 227.05 418.29 233.91 435.49 233.91 435.49 241.59 418.29 241.59 418.29 251.4 436.82 251.4 436.82 259.08"/><polygon class="cls-11" points="466.88 259.08 443.62 259.08 443.62 252.04 450.13 252.04 450.13 226.41 443.62 226.41 443.62 219.37 466.88 219.37 466.88 226.41 460.37 226.41 460.37 252.04 466.88 252.04 466.88 259.08"/><polygon class="cls-11" points="506.29 227.05 493.89 227.05 493.89 259.08 483.65 259.08 483.65 227.05 471.25 227.05 471.25 219.37 506.29 219.37 506.29 227.05"/><path class="cls-11" d="M537.49,249.29c1-1.21,1.73-2.64,2.21-4.28s.72-3.58,.72-5.8c0-2.38-.28-4.41-.83-6.08-.55-1.67-1.27-3.02-2.16-4.05s-1.95-1.84-3.13-2.32c-1.18-.48-2.41-.72-3.69-.72s-2.52,.23-3.67,.69c-1.15,.46-2.2,1.23-3.16,2.29-.89,1-1.61,2.37-2.17,4.12-.56,1.75-.84,3.78-.84,6.09s.27,4.38,.81,6.04c.54,1.66,1.26,3.02,2.15,4.07,.89,1.05,1.93,1.82,3.12,2.32,1.19,.5,2.44,.75,3.76,.75s2.57-.25,3.76-.76c1.19-.51,2.23-1.29,3.12-2.36Zm13.57-10.05c0,6.33-1.81,11.36-5.44,15.08-3.63,3.73-8.64,5.59-15.04,5.59s-11.39-1.86-15.01-5.59c-3.63-3.72-5.44-8.75-5.44-15.08s1.81-11.43,5.44-15.13c3.63-3.71,8.63-5.56,15.01-5.56s11.37,1.85,15.01,5.56c3.64,3.71,5.47,8.75,5.47,15.13Z"/></g><g class="cls-9"><polygon class="cls-4" points="36.87 204.44 27 204.44 10.15 177.19 10.15 204.44 .77 204.44 .77 164.74 13 164.74 27.48 187.48 27.48 164.74 36.87 164.74 36.87 204.44"/><path class="cls-4" d="M72.04,194.65c1-1.21,1.73-2.64,2.21-4.28s.72-3.58,.72-5.8c0-2.38-.28-4.41-.83-6.08-.55-1.67-1.27-3.02-2.16-4.05s-1.95-1.84-3.13-2.32-2.41-.72-3.69-.72-2.52,.23-3.67,.69c-1.15,.46-2.2,1.23-3.16,2.29-.89,1-1.61,2.37-2.17,4.12-.56,1.75-.84,3.78-.84,6.09s.27,4.38,.81,6.04c.54,1.66,1.26,3.02,2.15,4.07,.89,1.05,1.93,1.82,3.12,2.32,1.19,.5,2.44,.75,3.76,.75s2.57-.25,3.76-.76c1.19-.51,2.23-1.29,3.12-2.36Zm13.57-10.05c0,6.33-1.81,11.36-5.44,15.08-3.63,3.72-8.64,5.59-15.04,5.59s-11.39-1.86-15.01-5.59c-3.63-3.72-5.44-8.75-5.44-15.08s1.81-11.43,5.44-15.13c3.63-3.71,8.63-5.56,15.01-5.56s11.37,1.85,15.01,5.56c3.64,3.71,5.47,8.75,5.47,15.13Z"/><path class="cls-4" d="M125.21,191.96c0,3.91-1.66,7.09-4.97,9.53-3.32,2.45-7.82,3.67-13.51,3.67-3.29,0-6.16-.29-8.6-.87-2.44-.58-4.73-1.31-6.87-2.2v-9.52h1.12c2.12,1.69,4.48,2.99,7.11,3.89,2.62,.91,5.14,1.36,7.56,1.36,.62,0,1.44-.05,2.45-.16s1.84-.28,2.48-.53c.78-.31,1.43-.72,1.93-1.2,.51-.48,.76-1.19,.76-2.13,0-.87-.37-1.62-1.11-2.25s-1.82-1.12-3.24-1.45c-1.49-.36-3.07-.69-4.73-1-1.66-.31-3.22-.71-4.68-1.19-3.34-1.08-5.75-2.56-7.21-4.41-1.47-1.86-2.2-4.16-2.2-6.92,0-3.7,1.66-6.71,4.97-9.05,3.32-2.34,7.58-3.51,12.79-3.51,2.61,0,5.19,.25,7.75,.76,2.55,.51,4.76,1.14,6.63,1.91v9.15h-1.09c-1.6-1.28-3.56-2.35-5.88-3.21-2.32-.86-4.69-1.29-7.11-1.29-.85,0-1.7,.06-2.55,.17s-1.65,.34-2.44,.65c-.69,.27-1.29,.67-1.79,1.21-.5,.54-.75,1.16-.75,1.85,0,1.05,.4,1.85,1.2,2.41,.8,.56,2.31,1.07,4.53,1.53,1.46,.3,2.86,.6,4.2,.88s2.79,.68,4.33,1.17c3.04,1,5.28,2.35,6.73,4.07,1.45,1.72,2.17,3.94,2.17,6.68Z"/><path class="cls-4" d="M164.01,191.96c0,3.91-1.66,7.09-4.97,9.53-3.32,2.45-7.82,3.67-13.51,3.67-3.29,0-6.16-.29-8.6-.87-2.44-.58-4.73-1.31-6.87-2.2v-9.52h1.12c2.12,1.69,4.48,2.99,7.11,3.89,2.62,.91,5.14,1.36,7.56,1.36,.62,0,1.44-.05,2.45-.16s1.84-.28,2.48-.53c.78-.31,1.43-.72,1.93-1.2,.51-.48,.76-1.19,.76-2.13,0-.87-.37-1.62-1.11-2.25s-1.82-1.12-3.24-1.45c-1.49-.36-3.07-.69-4.73-1-1.66-.31-3.22-.71-4.68-1.19-3.34-1.08-5.75-2.56-7.21-4.41-1.47-1.86-2.2-4.16-2.2-6.92,0-3.7,1.66-6.71,4.97-9.05,3.32-2.34,7.58-3.51,12.79-3.51,2.61,0,5.19,.25,7.75,.76,2.55,.51,4.76,1.14,6.63,1.91v9.15h-1.09c-1.6-1.28-3.56-2.35-5.88-3.21-2.32-.86-4.69-1.29-7.11-1.29-.85,0-1.7,.06-2.55,.17s-1.65,.34-2.44,.65c-.69,.27-1.29,.67-1.79,1.21-.5,.54-.75,1.16-.75,1.85,0,1.05,.4,1.85,1.2,2.41,.8,.56,2.31,1.07,4.53,1.53,1.46,.3,2.86,.6,4.2,.88s2.79,.68,4.33,1.17c3.04,1,5.28,2.35,6.73,4.07,1.45,1.72,2.17,3.94,2.17,6.68Z"/><path class="cls-4" d="M196.06,194.65c1-1.21,1.73-2.64,2.21-4.28s.72-3.58,.72-5.8c0-2.38-.28-4.41-.83-6.08-.55-1.67-1.27-3.02-2.16-4.05s-1.95-1.84-3.13-2.32-2.41-.72-3.69-.72-2.52,.23-3.67,.69c-1.15,.46-2.2,1.23-3.16,2.29-.89,1-1.61,2.37-2.17,4.12-.56,1.75-.84,3.78-.84,6.09s.27,4.38,.81,6.04c.54,1.66,1.26,3.02,2.15,4.07,.89,1.05,1.93,1.82,3.12,2.32,1.19,.5,2.44,.75,3.76,.75s2.57-.25,3.76-.76c1.19-.51,2.23-1.29,3.12-2.36Zm13.57-10.05c0,6.33-1.81,11.36-5.44,15.08-3.63,3.72-8.64,5.59-15.04,5.59s-11.39-1.86-15.01-5.59c-3.63-3.72-5.44-8.75-5.44-15.08s1.81-11.43,5.44-15.13c3.63-3.71,8.63-5.56,15.01-5.56s11.37,1.85,15.01,5.56c3.64,3.71,5.47,8.75,5.47,15.13Z"/><path class="cls-4" d="M254.05,205.21c-2.95,0-5.68-.44-8.17-1.31-2.5-.87-4.64-2.17-6.44-3.89-1.8-1.72-3.19-3.88-4.17-6.45-.99-2.58-1.48-5.55-1.48-8.93,0-3.15,.47-6,1.41-8.56,.94-2.56,2.31-4.76,4.11-6.59,1.72-1.76,3.86-3.12,6.41-4.08,2.55-.96,5.34-1.44,8.36-1.44,1.67,0,3.18,.09,4.52,.28,1.34,.19,2.59,.42,3.72,.73,1.19,.33,2.27,.72,3.24,1.13,.97,.42,1.82,.8,2.55,1.16v9.63h-1.17c-.5-.42-1.12-.93-1.88-1.51-.76-.58-1.61-1.16-2.57-1.72s-2.04-1.04-3.17-1.43c-1.14-.39-2.36-.58-3.65-.58-1.44,0-2.81,.23-4.11,.68-1.3,.45-2.5,1.2-3.6,2.25s-1.9,2.35-2.55,4.02c-.65,1.67-.97,3.69-.97,6.07s.35,4.56,1.05,6.23c.7,1.67,1.59,2.98,2.65,3.94,1.08,.98,2.29,1.67,3.63,2.09s2.65,.63,3.95,.63,2.47-.19,3.69-.56c1.22-.37,2.34-.89,3.37-1.51,.86-.52,1.68-1.06,2.43-1.65,.75-.58,1.36-1.09,1.84-1.51h1.07v9.49c-1,.44-1.95,.86-2.85,1.25s-1.86,.73-2.85,1.01c-1.3,.37-2.52,.66-3.65,.85-1.14,.2-2.7,.29-4.69,.29Z"/><path class="cls-4" d="M300.66,194.65c1-1.21,1.73-2.64,2.21-4.28s.72-3.58,.72-5.8c0-2.38-.28-4.41-.83-6.08-.55-1.67-1.27-3.02-2.16-4.05s-1.95-1.84-3.13-2.32-2.41-.72-3.69-.72-2.52,.23-3.67,.69c-1.15,.46-2.2,1.23-3.16,2.29-.89,1-1.61,2.37-2.17,4.12-.56,1.75-.84,3.78-.84,6.09s.27,4.38,.81,6.04c.54,1.66,1.26,3.02,2.15,4.07,.89,1.05,1.93,1.82,3.12,2.32,1.19,.5,2.44,.75,3.76,.75s2.57-.25,3.76-.76c1.19-.51,2.23-1.29,3.12-2.36Zm13.57-10.05c0,6.33-1.81,11.36-5.44,15.08-3.63,3.72-8.64,5.59-15.04,5.59s-11.39-1.86-15.01-5.59c-3.63-3.72-5.44-8.75-5.44-15.08s1.81-11.43,5.44-15.13c3.63-3.71,8.63-5.56,15.01-5.56s11.37,1.85,15.01,5.56c3.64,3.71,5.47,8.75,5.47,15.13Z"/><polygon class="cls-4" points="358.15 204.44 348.29 204.44 331.44 177.19 331.44 204.44 322.05 204.44 322.05 164.74 334.29 164.74 348.77 187.48 348.77 164.74 358.15 164.74 358.15 204.44"/><path class="cls-4" d="M386.23,205.21c-2.95,0-5.68-.44-8.17-1.31-2.5-.87-4.64-2.17-6.44-3.89-1.8-1.72-3.19-3.88-4.17-6.45-.99-2.58-1.48-5.55-1.48-8.93,0-3.15,.47-6,1.41-8.56,.94-2.56,2.31-4.76,4.11-6.59,1.72-1.76,3.86-3.12,6.41-4.08,2.55-.96,5.34-1.44,8.36-1.44,1.67,0,3.18,.09,4.52,.28,1.34,.19,2.59,.42,3.72,.73,1.19,.33,2.27,.72,3.24,1.13,.97,.42,1.82,.8,2.55,1.16v9.63h-1.17c-.5-.42-1.12-.93-1.88-1.51-.76-.58-1.61-1.16-2.57-1.72s-2.04-1.04-3.17-1.43c-1.14-.39-2.36-.58-3.65-.58-1.44,0-2.81,.23-4.11,.68-1.3,.45-2.5,1.2-3.6,2.25s-1.9,2.35-2.55,4.02c-.65,1.67-.97,3.69-.97,6.07s.35,4.56,1.05,6.23c.7,1.67,1.59,2.98,2.65,3.94,1.08,.98,2.29,1.67,3.63,2.09s2.65,.63,3.95,.63,2.47-.19,3.69-.56c1.22-.37,2.34-.89,3.37-1.51,.86-.52,1.68-1.06,2.43-1.65,.75-.58,1.36-1.09,1.84-1.51h1.07v9.49c-1,.44-1.95,.86-2.85,1.25s-1.86,.73-2.85,1.01c-1.3,.37-2.52,.66-3.65,.85-1.14,.2-2.7,.29-4.69,.29Z"/><polygon class="cls-4" points="436.52 204.44 407.8 204.44 407.8 164.74 436.52 164.74 436.52 172.42 417.99 172.42 417.99 179.27 435.19 179.27 435.19 186.95 417.99 186.95 417.99 196.76 436.52 196.76 436.52 204.44"/><polygon class="cls-4" points="466.57 204.44 443.32 204.44 443.32 197.4 449.83 197.4 449.83 171.78 443.32 171.78 443.32 164.74 466.57 164.74 466.57 171.78 460.07 171.78 460.07 197.4 466.57 197.4 466.57 204.44"/><polygon class="cls-4" points="505.98 172.42 493.58 172.42 493.58 204.44 483.34 204.44 483.34 172.42 470.94 172.42 470.94 164.74 505.98 164.74 505.98 172.42"/><path class="cls-4" d="M537.18,194.65c1-1.21,1.73-2.64,2.21-4.28s.72-3.58,.72-5.8c0-2.38-.28-4.41-.83-6.08-.55-1.67-1.27-3.02-2.16-4.05s-1.95-1.84-3.13-2.32c-1.18-.48-2.41-.72-3.69-.72s-2.52,.23-3.67,.69c-1.15,.46-2.2,1.23-3.16,2.29-.89,1-1.61,2.37-2.17,4.12-.56,1.75-.84,3.78-.84,6.09s.27,4.38,.81,6.04c.54,1.66,1.26,3.02,2.15,4.07,.89,1.05,1.93,1.82,3.12,2.32,1.19,.5,2.44,.75,3.76,.75s2.57-.25,3.76-.76c1.19-.51,2.23-1.29,3.12-2.36Zm13.57-10.05c0,6.33-1.81,11.36-5.44,15.08-3.63,3.72-8.64,5.59-15.04,5.59s-11.39-1.86-15.01-5.59c-3.63-3.72-5.44-8.75-5.44-15.08s1.81-11.43,5.44-15.13c3.63-3.71,8.63-5.56,15.01-5.56s11.37,1.85,15.01,5.56c3.64,3.71,5.47,8.75,5.47,15.13Z"/></g><g class="cls-1"><polygon class="cls-3" points="36.61 149.8 26.75 149.8 9.9 122.55 9.9 149.8 .51 149.8 .51 110.1 12.75 110.1 27.23 132.84 27.23 110.1 36.61 110.1 36.61 149.8"/><path class="cls-3" d="M71.78,140.01c1-1.21,1.73-2.64,2.21-4.28s.72-3.58,.72-5.8c0-2.38-.28-4.41-.83-6.08-.55-1.67-1.27-3.02-2.16-4.05s-1.95-1.84-3.13-2.32-2.41-.72-3.69-.72-2.52,.23-3.67,.69c-1.15,.46-2.2,1.23-3.16,2.29-.89,1-1.61,2.37-2.17,4.12-.56,1.75-.84,3.78-.84,6.09s.27,4.38,.81,6.04c.54,1.66,1.26,3.02,2.15,4.07,.89,1.05,1.93,1.82,3.12,2.32,1.19,.5,2.44,.75,3.76,.75s2.57-.25,3.76-.76c1.19-.51,2.23-1.29,3.12-2.36Zm13.57-10.05c0,6.33-1.81,11.35-5.44,15.08-3.63,3.72-8.64,5.59-15.04,5.59s-11.38-1.86-15.01-5.59c-3.63-3.72-5.44-8.75-5.44-15.08s1.81-11.42,5.44-15.13c3.63-3.71,8.63-5.56,15.01-5.56s11.37,1.85,15.01,5.56c3.64,3.71,5.47,8.75,5.47,15.13Z"/><path class="cls-3" d="M124.94,137.32c0,3.91-1.66,7.09-4.97,9.53-3.31,2.44-7.82,3.67-13.5,3.67-3.29,0-6.15-.29-8.6-.87-2.44-.58-4.73-1.31-6.87-2.2v-9.52h1.12c2.12,1.69,4.48,2.99,7.11,3.89,2.62,.91,5.14,1.36,7.56,1.36,.62,0,1.44-.05,2.45-.16s1.84-.28,2.48-.53c.78-.31,1.43-.72,1.93-1.2,.51-.48,.76-1.19,.76-2.13,0-.87-.37-1.62-1.11-2.25s-1.82-1.12-3.24-1.45c-1.49-.36-3.07-.69-4.73-1-1.66-.31-3.22-.71-4.68-1.19-3.34-1.08-5.75-2.56-7.21-4.41-1.47-1.86-2.2-4.16-2.2-6.92,0-3.7,1.66-6.71,4.97-9.05,3.31-2.34,7.58-3.51,12.78-3.51,2.61,0,5.19,.25,7.75,.76,2.55,.51,4.76,1.14,6.63,1.91v9.14h-1.09c-1.6-1.28-3.56-2.35-5.88-3.21-2.32-.86-4.69-1.29-7.11-1.29-.85,0-1.7,.06-2.55,.17s-1.65,.34-2.44,.65c-.69,.27-1.29,.67-1.79,1.21-.5,.54-.75,1.16-.75,1.85,0,1.05,.4,1.85,1.2,2.41,.8,.56,2.31,1.07,4.53,1.53,1.46,.3,2.86,.6,4.2,.88s2.79,.68,4.33,1.17c3.04,1,5.28,2.35,6.73,4.07,1.45,1.72,2.17,3.94,2.17,6.68Z"/><path class="cls-3" d="M163.73,137.32c0,3.91-1.66,7.09-4.97,9.53-3.31,2.44-7.82,3.67-13.5,3.67-3.29,0-6.15-.29-8.6-.87-2.44-.58-4.73-1.31-6.87-2.2v-9.52h1.12c2.12,1.69,4.48,2.99,7.11,3.89,2.62,.91,5.14,1.36,7.56,1.36,.62,0,1.44-.05,2.45-.16s1.84-.28,2.48-.53c.78-.31,1.43-.72,1.93-1.2,.51-.48,.76-1.19,.76-2.13,0-.87-.37-1.62-1.11-2.25s-1.82-1.12-3.24-1.45c-1.49-.36-3.07-.69-4.73-1-1.66-.31-3.22-.71-4.68-1.19-3.34-1.08-5.75-2.56-7.21-4.41-1.47-1.86-2.2-4.16-2.2-6.92,0-3.7,1.66-6.71,4.97-9.05,3.31-2.34,7.58-3.51,12.78-3.51,2.61,0,5.19,.25,7.75,.76,2.55,.51,4.76,1.14,6.63,1.91v9.14h-1.09c-1.6-1.28-3.56-2.35-5.88-3.21-2.32-.86-4.69-1.29-7.11-1.29-.85,0-1.7,.06-2.55,.17s-1.65,.34-2.44,.65c-.69,.27-1.29,.67-1.79,1.21-.5,.54-.75,1.16-.75,1.85,0,1.05,.4,1.85,1.2,2.41,.8,.56,2.31,1.07,4.53,1.53,1.46,.3,2.86,.6,4.2,.88s2.79,.68,4.33,1.17c3.04,1,5.28,2.35,6.73,4.07,1.45,1.72,2.17,3.94,2.17,6.68Z"/><path class="cls-3" d="M195.78,140.01c1-1.21,1.73-2.64,2.21-4.28s.72-3.58,.72-5.8c0-2.38-.28-4.41-.83-6.08-.55-1.67-1.27-3.02-2.16-4.05s-1.95-1.84-3.13-2.32-2.41-.72-3.69-.72-2.52,.23-3.67,.69c-1.15,.46-2.2,1.23-3.16,2.29-.89,1-1.61,2.37-2.17,4.12-.56,1.75-.84,3.78-.84,6.09s.27,4.38,.81,6.04c.54,1.66,1.26,3.02,2.15,4.07,.89,1.05,1.93,1.82,3.12,2.32,1.19,.5,2.44,.75,3.76,.75s2.57-.25,3.76-.76c1.19-.51,2.23-1.29,3.12-2.36Zm13.57-10.05c0,6.33-1.81,11.35-5.44,15.08-3.63,3.72-8.64,5.59-15.04,5.59s-11.38-1.86-15.01-5.59c-3.63-3.72-5.44-8.75-5.44-15.08s1.81-11.42,5.44-15.13c3.63-3.71,8.63-5.56,15.01-5.56s11.37,1.85,15.01,5.56c3.64,3.71,5.47,8.75,5.47,15.13Z"/><path class="cls-3" d="M253.77,150.57c-2.95,0-5.67-.44-8.17-1.31-2.5-.87-4.64-2.17-6.44-3.89-1.8-1.72-3.19-3.87-4.17-6.45-.99-2.58-1.48-5.55-1.48-8.93,0-3.15,.47-6,1.41-8.56,.94-2.56,2.31-4.75,4.11-6.59,1.72-1.76,3.86-3.12,6.41-4.08,2.55-.96,5.34-1.44,8.36-1.44,1.67,0,3.18,.09,4.52,.28,1.34,.19,2.58,.42,3.72,.73,1.19,.33,2.27,.72,3.24,1.13,.97,.42,1.82,.8,2.55,1.16v9.62h-1.17c-.5-.42-1.12-.93-1.88-1.51-.76-.58-1.61-1.16-2.57-1.72s-2.04-1.04-3.17-1.43c-1.14-.39-2.36-.58-3.65-.58-1.44,0-2.81,.23-4.11,.68-1.3,.45-2.5,1.2-3.6,2.25s-1.9,2.35-2.55,4.02c-.65,1.67-.97,3.69-.97,6.07s.35,4.56,1.05,6.23c.7,1.67,1.59,2.98,2.65,3.94,1.08,.98,2.29,1.67,3.63,2.09s2.65,.63,3.95,.63,2.47-.19,3.69-.56c1.22-.37,2.34-.89,3.37-1.51,.86-.52,1.68-1.06,2.43-1.64,.75-.58,1.36-1.09,1.84-1.51h1.07v9.49c-1,.44-1.95,.86-2.85,1.25s-1.86,.73-2.85,1.01c-1.3,.37-2.52,.66-3.65,.85-1.14,.2-2.7,.29-4.69,.29Z"/><path class="cls-3" d="M300.38,140.01c1-1.21,1.73-2.64,2.21-4.28s.72-3.58,.72-5.8c0-2.38-.28-4.41-.83-6.08-.55-1.67-1.27-3.02-2.16-4.05s-1.95-1.84-3.13-2.32-2.41-.72-3.69-.72-2.52,.23-3.67,.69c-1.15,.46-2.2,1.23-3.16,2.29-.89,1-1.61,2.37-2.17,4.12-.56,1.75-.84,3.78-.84,6.09s.27,4.38,.81,6.04c.54,1.66,1.26,3.02,2.15,4.07,.89,1.05,1.93,1.82,3.12,2.32,1.19,.5,2.44,.75,3.76,.75s2.57-.25,3.76-.76c1.19-.51,2.23-1.29,3.12-2.36Zm13.57-10.05c0,6.33-1.81,11.35-5.44,15.08-3.63,3.72-8.64,5.59-15.04,5.59s-11.38-1.86-15.01-5.59c-3.63-3.72-5.44-8.75-5.44-15.08s1.81-11.42,5.44-15.13c3.63-3.71,8.63-5.56,15.01-5.56s11.37,1.85,15.01,5.56c3.64,3.71,5.47,8.75,5.47,15.13Z"/><polygon class="cls-3" points="357.86 149.8 347.99 149.8 331.14 122.55 331.14 149.8 321.76 149.8 321.76 110.1 334 110.1 348.47 132.84 348.47 110.1 357.86 110.1 357.86 149.8"/><path class="cls-3" d="M385.93,150.57c-2.95,0-5.67-.44-8.17-1.31-2.5-.87-4.64-2.17-6.44-3.89-1.8-1.72-3.19-3.87-4.17-6.45-.99-2.58-1.48-5.55-1.48-8.93,0-3.15,.47-6,1.41-8.56,.94-2.56,2.31-4.75,4.11-6.59,1.72-1.76,3.86-3.12,6.41-4.08,2.55-.96,5.34-1.44,8.36-1.44,1.67,0,3.18,.09,4.52,.28,1.34,.19,2.58,.42,3.72,.73,1.19,.33,2.27,.72,3.24,1.13,.97,.42,1.82,.8,2.55,1.16v9.62h-1.17c-.5-.42-1.12-.93-1.88-1.51-.76-.58-1.61-1.16-2.57-1.72s-2.04-1.04-3.17-1.43c-1.14-.39-2.36-.58-3.65-.58-1.44,0-2.81,.23-4.11,.68-1.3,.45-2.5,1.2-3.6,2.25s-1.9,2.35-2.55,4.02c-.65,1.67-.97,3.69-.97,6.07s.35,4.56,1.05,6.23c.7,1.67,1.59,2.98,2.65,3.94,1.08,.98,2.29,1.67,3.63,2.09s2.65,.63,3.95,.63,2.47-.19,3.69-.56c1.22-.37,2.34-.89,3.37-1.51,.86-.52,1.68-1.06,2.43-1.64,.75-.58,1.36-1.09,1.84-1.51h1.07v9.49c-1,.44-1.95,.86-2.85,1.25s-1.86,.73-2.85,1.01c-1.3,.37-2.52,.66-3.65,.85-1.14,.2-2.7,.29-4.69,.29Z"/><polygon class="cls-3" points="436.22 149.8 407.5 149.8 407.5 110.1 436.22 110.1 436.22 117.78 417.69 117.78 417.69 124.63 434.89 124.63 434.89 132.31 417.69 132.31 417.69 142.12 436.22 142.12 436.22 149.8"/><polygon class="cls-3" points="466.27 149.8 443.02 149.8 443.02 142.76 449.52 142.76 449.52 117.14 443.02 117.14 443.02 110.1 466.27 110.1 466.27 117.14 459.76 117.14 459.76 142.76 466.27 142.76 466.27 149.8"/><polygon class="cls-3" points="505.67 117.78 493.27 117.78 493.27 149.8 483.04 149.8 483.04 117.78 470.64 117.78 470.64 110.1 505.67 110.1 505.67 117.78"/><path class="cls-3" d="M536.87,140.01c1-1.21,1.73-2.64,2.21-4.28s.72-3.58,.72-5.8c0-2.38-.28-4.41-.83-6.08-.55-1.67-1.27-3.02-2.16-4.05s-1.95-1.84-3.13-2.32c-1.18-.48-2.41-.72-3.69-.72s-2.52,.23-3.67,.69c-1.15,.46-2.2,1.23-3.16,2.29-.89,1-1.61,2.37-2.17,4.12-.56,1.75-.84,3.78-.84,6.09s.27,4.38,.81,6.04c.54,1.66,1.26,3.02,2.15,4.07,.89,1.05,1.93,1.82,3.12,2.32,1.19,.5,2.44,.75,3.76,.75s2.57-.25,3.76-.76c1.19-.51,2.23-1.29,3.12-2.36Zm13.57-10.05c0,6.33-1.81,11.35-5.44,15.08-3.63,3.72-8.64,5.59-15.04,5.59s-11.38-1.86-15.01-5.59c-3.63-3.72-5.44-8.75-5.44-15.08s1.81-11.42,5.44-15.13c3.63-3.71,8.63-5.56,15.01-5.56s11.37,1.85,15.01,5.56c3.64,3.71,5.47,8.75,5.47,15.13Z"/></g><g class="cls-8"><polygon class="cls-10" points="36.35 95.16 26.49 95.16 9.64 67.91 9.64 95.16 .26 95.16 .26 55.46 12.49 55.46 26.97 78.2 26.97 55.46 36.35 55.46 36.35 95.16"/><path class="cls-10" d="M71.51,85.37c1-1.21,1.73-2.64,2.21-4.28s.72-3.58,.72-5.8c0-2.38-.28-4.41-.83-6.08-.55-1.67-1.27-3.02-2.16-4.05s-1.95-1.84-3.13-2.32-2.41-.72-3.69-.72-2.52,.23-3.67,.69c-1.15,.46-2.2,1.23-3.16,2.29-.89,1-1.61,2.37-2.17,4.12-.56,1.75-.84,3.78-.84,6.09s.27,4.38,.81,6.04c.54,1.66,1.26,3.02,2.15,4.06,.89,1.05,1.93,1.82,3.12,2.32,1.19,.5,2.44,.75,3.76,.75s2.57-.25,3.76-.76c1.19-.51,2.23-1.29,3.12-2.36Zm13.57-10.05c0,6.33-1.81,11.35-5.44,15.08-3.63,3.72-8.64,5.58-15.04,5.58s-11.38-1.86-15.01-5.58c-3.63-3.72-5.44-8.75-5.44-15.08s1.81-11.42,5.44-15.13c3.63-3.71,8.63-5.56,15.01-5.56s11.37,1.85,15.01,5.56c3.64,3.71,5.47,8.75,5.47,15.13Z"/><path class="cls-10" d="M124.67,82.68c0,3.91-1.66,7.09-4.97,9.53-3.31,2.44-7.82,3.67-13.5,3.67-3.29,0-6.15-.29-8.6-.87-2.44-.58-4.73-1.31-6.86-2.2v-9.52h1.12c2.11,1.69,4.48,2.99,7.1,3.89,2.62,.91,5.14,1.36,7.56,1.36,.62,0,1.44-.05,2.45-.16s1.84-.28,2.48-.53c.78-.31,1.43-.72,1.93-1.2,.51-.48,.76-1.19,.76-2.13,0-.87-.37-1.62-1.11-2.25s-1.82-1.12-3.24-1.45c-1.49-.36-3.07-.69-4.73-1-1.66-.31-3.22-.71-4.68-1.19-3.34-1.08-5.75-2.55-7.21-4.41-1.47-1.86-2.2-4.16-2.2-6.92,0-3.7,1.66-6.71,4.97-9.05,3.31-2.34,7.57-3.51,12.78-3.51,2.61,0,5.19,.25,7.74,.76,2.55,.51,4.76,1.14,6.62,1.91v9.14h-1.09c-1.6-1.28-3.56-2.35-5.88-3.21-2.32-.86-4.69-1.29-7.1-1.29-.85,0-1.7,.06-2.55,.17s-1.65,.34-2.44,.65c-.69,.27-1.29,.67-1.79,1.21-.5,.54-.75,1.16-.75,1.85,0,1.05,.4,1.85,1.2,2.41,.8,.56,2.31,1.07,4.53,1.53,1.46,.3,2.86,.6,4.2,.88s2.79,.68,4.33,1.17c3.04,1,5.28,2.35,6.73,4.06,1.45,1.72,2.17,3.94,2.17,6.68Z"/><path class="cls-10" d="M163.46,82.68c0,3.91-1.66,7.09-4.97,9.53-3.31,2.44-7.82,3.67-13.5,3.67-3.29,0-6.15-.29-8.6-.87-2.44-.58-4.73-1.31-6.86-2.2v-9.52h1.12c2.11,1.69,4.48,2.99,7.1,3.89,2.62,.91,5.14,1.36,7.56,1.36,.62,0,1.44-.05,2.45-.16s1.84-.28,2.48-.53c.78-.31,1.43-.72,1.93-1.2,.51-.48,.76-1.19,.76-2.13,0-.87-.37-1.62-1.11-2.25s-1.82-1.12-3.24-1.45c-1.49-.36-3.07-.69-4.73-1-1.66-.31-3.22-.71-4.68-1.19-3.34-1.08-5.75-2.55-7.21-4.41-1.47-1.86-2.2-4.16-2.2-6.92,0-3.7,1.66-6.71,4.97-9.05,3.31-2.34,7.57-3.51,12.78-3.51,2.61,0,5.19,.25,7.74,.76,2.55,.51,4.76,1.14,6.62,1.91v9.14h-1.09c-1.6-1.28-3.56-2.35-5.88-3.21-2.32-.86-4.69-1.29-7.1-1.29-.85,0-1.7,.06-2.55,.17s-1.65,.34-2.44,.65c-.69,.27-1.29,.67-1.79,1.21-.5,.54-.75,1.16-.75,1.85,0,1.05,.4,1.85,1.2,2.41,.8,.56,2.31,1.07,4.53,1.53,1.46,.3,2.86,.6,4.2,.88s2.79,.68,4.33,1.17c3.04,1,5.28,2.35,6.73,4.06,1.45,1.72,2.17,3.94,2.17,6.68Z"/><path class="cls-10" d="M195.51,85.37c1-1.21,1.73-2.64,2.21-4.28s.72-3.58,.72-5.8c0-2.38-.28-4.41-.83-6.08-.55-1.67-1.27-3.02-2.16-4.05s-1.95-1.84-3.13-2.32-2.41-.72-3.69-.72-2.52,.23-3.67,.69c-1.15,.46-2.2,1.23-3.16,2.29-.89,1-1.61,2.37-2.17,4.12-.56,1.75-.84,3.78-.84,6.09s.27,4.38,.81,6.04c.54,1.66,1.26,3.02,2.15,4.06,.89,1.05,1.93,1.82,3.12,2.32,1.19,.5,2.44,.75,3.76,.75s2.57-.25,3.76-.76c1.19-.51,2.23-1.29,3.12-2.36Zm13.57-10.05c0,6.33-1.81,11.35-5.44,15.08-3.63,3.72-8.64,5.58-15.04,5.58s-11.38-1.86-15.01-5.58c-3.63-3.72-5.44-8.75-5.44-15.08s1.81-11.42,5.44-15.13c3.63-3.71,8.63-5.56,15.01-5.56s11.37,1.85,15.01,5.56c3.64,3.71,5.47,8.75,5.47,15.13Z"/><path class="cls-10" d="M253.49,95.93c-2.95,0-5.67-.44-8.17-1.31-2.5-.87-4.64-2.17-6.44-3.89-1.8-1.72-3.19-3.87-4.17-6.45-.99-2.58-1.48-5.55-1.48-8.93,0-3.15,.47-6,1.41-8.56,.94-2.56,2.31-4.75,4.11-6.58,1.72-1.76,3.86-3.12,6.41-4.08,2.55-.96,5.34-1.44,8.36-1.44,1.67,0,3.18,.09,4.52,.28,1.34,.19,2.58,.42,3.72,.73,1.19,.33,2.27,.72,3.24,1.13,.97,.42,1.82,.8,2.55,1.16v9.62h-1.17c-.5-.42-1.12-.93-1.88-1.51-.76-.58-1.61-1.16-2.57-1.72s-2.04-1.04-3.17-1.43c-1.14-.39-2.36-.58-3.65-.58-1.44,0-2.81,.23-4.11,.68-1.3,.45-2.5,1.2-3.6,2.25s-1.9,2.35-2.55,4.02c-.65,1.67-.97,3.69-.97,6.07s.35,4.56,1.05,6.23c.7,1.67,1.59,2.98,2.65,3.94,1.08,.98,2.29,1.67,3.63,2.09s2.65,.63,3.95,.63,2.47-.19,3.69-.56c1.22-.37,2.34-.89,3.37-1.51,.86-.52,1.68-1.06,2.43-1.64,.75-.58,1.36-1.09,1.84-1.51h1.07v9.49c-1,.44-1.95,.86-2.85,1.25s-1.86,.73-2.85,1.01c-1.3,.37-2.52,.66-3.65,.85-1.14,.2-2.7,.29-4.69,.29Z"/><path class="cls-10" d="M300.09,85.37c1-1.21,1.73-2.64,2.21-4.28s.72-3.58,.72-5.8c0-2.38-.28-4.41-.83-6.08-.55-1.67-1.27-3.02-2.16-4.05s-1.95-1.84-3.13-2.32-2.41-.72-3.69-.72-2.52,.23-3.67,.69c-1.15,.46-2.2,1.23-3.16,2.29-.89,1-1.61,2.37-2.17,4.12-.56,1.75-.84,3.78-.84,6.09s.27,4.38,.81,6.04c.54,1.66,1.26,3.02,2.15,4.06,.89,1.05,1.93,1.82,3.12,2.32,1.19,.5,2.44,.75,3.76,.75s2.57-.25,3.76-.76c1.19-.51,2.23-1.29,3.12-2.36Zm13.57-10.05c0,6.33-1.81,11.35-5.44,15.08-3.63,3.72-8.64,5.58-15.04,5.58s-11.38-1.86-15.01-5.58c-3.63-3.72-5.44-8.75-5.44-15.08s1.81-11.42,5.44-15.13c3.63-3.71,8.63-5.56,15.01-5.56s11.37,1.85,15.01,5.56c3.64,3.71,5.47,8.75,5.47,15.13Z"/><polygon class="cls-10" points="357.57 95.16 347.7 95.16 330.85 67.91 330.85 95.16 321.47 95.16 321.47 55.46 333.71 55.46 348.18 78.2 348.18 55.46 357.57 55.46 357.57 95.16"/><path class="cls-10" d="M385.64,95.93c-2.95,0-5.67-.44-8.17-1.31-2.5-.87-4.64-2.17-6.44-3.89-1.8-1.72-3.19-3.87-4.17-6.45-.99-2.58-1.48-5.55-1.48-8.93,0-3.15,.47-6,1.41-8.56,.94-2.56,2.31-4.75,4.11-6.58,1.72-1.76,3.86-3.12,6.41-4.08,2.55-.96,5.34-1.44,8.36-1.44,1.67,0,3.18,.09,4.52,.28,1.34,.19,2.58,.42,3.72,.73,1.19,.33,2.27,.72,3.24,1.13,.97,.42,1.82,.8,2.55,1.16v9.62h-1.17c-.5-.42-1.12-.93-1.88-1.51-.76-.58-1.61-1.16-2.57-1.72s-2.04-1.04-3.17-1.43c-1.14-.39-2.36-.58-3.65-.58-1.44,0-2.81,.23-4.11,.68-1.3,.45-2.5,1.2-3.6,2.25s-1.9,2.35-2.55,4.02c-.65,1.67-.97,3.69-.97,6.07s.35,4.56,1.05,6.23c.7,1.67,1.59,2.98,2.65,3.94,1.08,.98,2.29,1.67,3.63,2.09s2.65,.63,3.95,.63,2.47-.19,3.69-.56c1.22-.37,2.34-.89,3.37-1.51,.86-.52,1.68-1.06,2.43-1.64,.75-.58,1.36-1.09,1.84-1.51h1.07v9.49c-1,.44-1.95,.86-2.85,1.25s-1.86,.73-2.85,1.01c-1.3,.37-2.52,.66-3.65,.85-1.14,.2-2.7,.29-4.69,.29Z"/><polygon class="cls-10" points="435.92 95.16 407.2 95.16 407.2 55.46 435.92 55.46 435.92 63.14 417.39 63.14 417.39 69.99 434.58 69.99 434.58 77.67 417.39 77.67 417.39 87.48 435.92 87.48 435.92 95.16"/><polygon class="cls-10" points="465.96 95.16 442.71 95.16 442.71 88.12 449.22 88.12 449.22 62.5 442.71 62.5 442.71 55.46 465.96 55.46 465.96 62.5 459.46 62.5 459.46 88.12 465.96 88.12 465.96 95.16"/><polygon class="cls-10" points="505.36 63.14 492.97 63.14 492.97 95.16 482.73 95.16 482.73 63.14 470.33 63.14 470.33 55.46 505.36 55.46 505.36 63.14"/><path class="cls-10" d="M536.55,85.37c1-1.21,1.73-2.64,2.21-4.28s.72-3.58,.72-5.8c0-2.38-.28-4.41-.83-6.08-.55-1.67-1.27-3.02-2.16-4.05s-1.95-1.84-3.13-2.32c-1.18-.48-2.41-.72-3.69-.72s-2.52,.23-3.67,.69c-1.15,.46-2.2,1.23-3.16,2.29-.89,1-1.61,2.37-2.17,4.12-.56,1.75-.84,3.78-.84,6.09s.27,4.38,.81,6.04c.54,1.66,1.26,3.02,2.15,4.06,.89,1.05,1.93,1.82,3.12,2.32,1.19,.5,2.44,.75,3.76,.75s2.57-.25,3.76-.76c1.19-.51,2.23-1.29,3.12-2.36Zm13.57-10.05c0,6.33-1.81,11.35-5.44,15.08-3.63,3.72-8.64,5.58-15.04,5.58s-11.38-1.86-15.01-5.58c-3.63-3.72-5.44-8.75-5.44-15.08s1.81-11.42,5.44-15.13c3.63-3.71,8.63-5.56,15.01-5.56s11.37,1.85,15.01,5.56c3.64,3.71,5.46,8.75,5.46,15.13Z"/></g><g><path class="cls-2" d="M36.09,40.52h-9.86L9.38,13.27v27.24H0V.83H12.24l14.47,22.74V.83h9.38V40.52Z"/><path class="cls-2" d="M71.25,30.73c1-1.21,1.73-2.64,2.21-4.28s.72-3.58,.72-5.8c0-2.38-.28-4.41-.83-6.08-.55-1.67-1.27-3.02-2.16-4.05-.91-1.07-1.95-1.84-3.13-2.32s-2.41-.72-3.69-.72-2.52,.23-3.67,.69c-1.15,.46-2.2,1.23-3.16,2.29-.89,1-1.61,2.37-2.17,4.12-.56,1.75-.84,3.78-.84,6.09s.27,4.38,.81,6.04c.54,1.66,1.26,3.02,2.15,4.06,.89,1.05,1.93,1.82,3.12,2.32,1.19,.5,2.44,.75,3.76,.75s2.57-.25,3.76-.76c1.19-.51,2.23-1.29,3.12-2.36Zm13.57-10.05c0,6.33-1.81,11.35-5.44,15.07-3.63,3.72-8.64,5.58-15.03,5.58s-11.38-1.86-15.01-5.58c-3.63-3.72-5.44-8.75-5.44-15.07s1.81-11.42,5.44-15.13c3.63-3.71,8.63-5.56,15.01-5.56s11.36,1.85,15.01,5.56c3.64,3.7,5.46,8.75,5.46,15.13Z"/><path class="cls-2" d="M124.4,28.04c0,3.91-1.66,7.09-4.97,9.53-3.31,2.44-7.81,3.67-13.5,3.67-3.29,0-6.15-.29-8.6-.87-2.44-.58-4.73-1.31-6.86-2.2v-9.52h1.12c2.11,1.69,4.48,2.99,7.1,3.89,2.62,.91,5.14,1.36,7.56,1.36,.62,0,1.44-.05,2.45-.16s1.84-.28,2.48-.53c.78-.32,1.43-.72,1.93-1.2,.51-.48,.76-1.19,.76-2.13,0-.87-.37-1.62-1.11-2.25s-1.82-1.12-3.24-1.45c-1.49-.36-3.07-.69-4.73-1-1.66-.31-3.22-.71-4.68-1.19-3.34-1.08-5.74-2.55-7.21-4.41-1.47-1.86-2.2-4.16-2.2-6.92,0-3.7,1.66-6.71,4.97-9.05,3.31-2.34,7.57-3.51,12.78-3.51,2.61,0,5.19,.25,7.74,.76,2.55,.51,4.76,1.14,6.62,1.91V11.91h-1.09c-1.6-1.28-3.56-2.35-5.88-3.21-2.32-.86-4.69-1.29-7.1-1.29-.85,0-1.7,.06-2.55,.17s-1.66,.33-2.44,.65c-.69,.27-1.29,.67-1.79,1.21-.5,.54-.75,1.16-.75,1.85,0,1.05,.4,1.85,1.2,2.41,.8,.56,2.31,1.07,4.53,1.53,1.46,.3,2.86,.6,4.2,.88s2.79,.68,4.33,1.17c3.04,1,5.28,2.35,6.73,4.06,1.45,1.72,2.17,3.94,2.17,6.68Z"/><path class="cls-2" d="M163.19,28.04c0,3.91-1.66,7.09-4.97,9.53-3.31,2.44-7.81,3.67-13.5,3.67-3.29,0-6.15-.29-8.6-.87-2.44-.58-4.73-1.31-6.86-2.2v-9.52h1.12c2.11,1.69,4.48,2.99,7.1,3.89,2.62,.91,5.14,1.36,7.56,1.36,.62,0,1.44-.05,2.45-.16s1.84-.28,2.48-.53c.78-.32,1.43-.72,1.93-1.2,.51-.48,.76-1.19,.76-2.13,0-.87-.37-1.62-1.11-2.25s-1.82-1.12-3.24-1.45c-1.49-.36-3.07-.69-4.73-1-1.66-.31-3.22-.71-4.68-1.19-3.34-1.08-5.74-2.55-7.21-4.41-1.47-1.86-2.2-4.16-2.2-6.92,0-3.7,1.66-6.71,4.97-9.05,3.31-2.34,7.57-3.51,12.78-3.51,2.61,0,5.19,.25,7.74,.76,2.55,.51,4.76,1.14,6.62,1.91V11.91h-1.09c-1.6-1.28-3.56-2.35-5.88-3.21-2.32-.86-4.69-1.29-7.1-1.29-.85,0-1.7,.06-2.55,.17s-1.66,.33-2.44,.65c-.69,.27-1.29,.67-1.79,1.21-.5,.54-.75,1.16-.75,1.85,0,1.05,.4,1.85,1.2,2.41,.8,.56,2.31,1.07,4.53,1.53,1.46,.3,2.86,.6,4.2,.88s2.79,.68,4.33,1.17c3.04,1,5.28,2.35,6.73,4.06,1.45,1.72,2.17,3.94,2.17,6.68Z"/><path class="cls-2" d="M195.23,30.73c1-1.21,1.73-2.64,2.21-4.28s.72-3.58,.72-5.8c0-2.38-.28-4.41-.83-6.08-.55-1.67-1.27-3.02-2.16-4.05-.91-1.07-1.95-1.84-3.13-2.32s-2.41-.72-3.69-.72-2.52,.23-3.67,.69c-1.15,.46-2.2,1.23-3.16,2.29-.89,1-1.61,2.37-2.17,4.12-.56,1.75-.84,3.78-.84,6.09s.27,4.38,.81,6.04c.54,1.66,1.26,3.02,2.15,4.06,.89,1.05,1.93,1.82,3.12,2.32,1.19,.5,2.44,.75,3.76,.75s2.57-.25,3.76-.76c1.19-.51,2.23-1.29,3.12-2.36Zm13.57-10.05c0,6.33-1.81,11.35-5.44,15.07-3.63,3.72-8.64,5.58-15.03,5.58s-11.38-1.86-15.01-5.58c-3.63-3.72-5.44-8.75-5.44-15.07s1.81-11.42,5.44-15.13c3.63-3.71,8.63-5.56,15.01-5.56s11.36,1.85,15.01,5.56c3.64,3.7,5.46,8.75,5.46,15.13Z"/><path class="cls-2" d="M253.21,41.29c-2.95,0-5.67-.44-8.17-1.31-2.5-.87-4.64-2.17-6.44-3.89-1.8-1.72-3.19-3.87-4.17-6.45-.99-2.58-1.48-5.55-1.48-8.93,0-3.15,.47-6,1.41-8.56,.94-2.56,2.31-4.75,4.11-6.58,1.72-1.76,3.86-3.12,6.41-4.08,2.55-.96,5.34-1.44,8.36-1.44,1.67,0,3.18,.09,4.52,.28,1.34,.19,2.58,.43,3.72,.73,1.19,.34,2.27,.72,3.24,1.13,.97,.42,1.82,.8,2.55,1.16V12.98h-1.17c-.5-.42-1.12-.93-1.88-1.51-.76-.58-1.61-1.16-2.57-1.72-.98-.57-2.04-1.04-3.17-1.43-1.14-.39-2.36-.58-3.65-.58-1.44,0-2.81,.23-4.11,.68-1.3,.45-2.5,1.2-3.6,2.25-1.05,1.01-1.9,2.35-2.55,4.02-.65,1.67-.97,3.69-.97,6.06s.35,4.56,1.05,6.22,1.59,2.98,2.65,3.94c1.08,.98,2.29,1.67,3.63,2.09s2.65,.63,3.95,.63,2.47-.19,3.69-.56c1.22-.37,2.34-.87,3.37-1.51,.87-.51,1.68-1.06,2.43-1.64,.75-.58,1.36-1.09,1.84-1.51h1.07v9.49c-1,.44-1.95,.86-2.85,1.25s-1.86,.73-2.85,1.01c-1.3,.37-2.51,.66-3.65,.85-1.14,.2-2.7,.29-4.69,.29Z"/><path class="cls-2" d="M299.8,30.73c1-1.21,1.73-2.64,2.21-4.28s.72-3.58,.72-5.8c0-2.38-.28-4.41-.83-6.08-.55-1.67-1.27-3.02-2.16-4.05-.91-1.07-1.95-1.84-3.13-2.32s-2.41-.72-3.69-.72-2.52,.23-3.67,.69c-1.15,.46-2.2,1.23-3.16,2.29-.89,1-1.61,2.37-2.17,4.12-.56,1.75-.84,3.78-.84,6.09s.27,4.38,.81,6.04c.54,1.66,1.26,3.02,2.15,4.06,.89,1.05,1.93,1.82,3.12,2.32,1.19,.5,2.44,.75,3.76,.75s2.57-.25,3.76-.76c1.19-.51,2.23-1.29,3.12-2.36Zm13.57-10.05c0,6.33-1.81,11.35-5.44,15.07-3.63,3.72-8.64,5.58-15.03,5.58s-11.38-1.86-15.01-5.58c-3.63-3.72-5.44-8.75-5.44-15.07s1.81-11.42,5.44-15.13c3.63-3.71,8.63-5.56,15.01-5.56s11.36,1.85,15.01,5.56c3.64,3.7,5.46,8.75,5.46,15.13Z"/><path class="cls-2" d="M357.27,40.52h-9.86l-16.85-27.24v27.24h-9.38V.83h12.24l14.47,22.74V.83h9.38V40.52Z"/><path class="cls-2" d="M385.34,41.29c-2.95,0-5.67-.44-8.17-1.31-2.5-.87-4.64-2.17-6.44-3.89-1.8-1.72-3.19-3.87-4.17-6.45-.99-2.58-1.48-5.55-1.48-8.93,0-3.15,.47-6,1.41-8.56,.94-2.56,2.31-4.75,4.11-6.58,1.72-1.76,3.86-3.12,6.41-4.08,2.55-.96,5.34-1.44,8.36-1.44,1.67,0,3.18,.09,4.52,.28,1.34,.19,2.58,.43,3.72,.73,1.19,.34,2.27,.72,3.24,1.13,.97,.42,1.82,.8,2.55,1.16V12.98h-1.17c-.5-.42-1.12-.93-1.88-1.51-.76-.58-1.61-1.16-2.57-1.72-.98-.57-2.04-1.04-3.17-1.43-1.14-.39-2.36-.58-3.65-.58-1.44,0-2.81,.23-4.11,.68-1.3,.45-2.5,1.2-3.6,2.25-1.05,1.01-1.9,2.35-2.55,4.02-.65,1.67-.97,3.69-.97,6.06s.35,4.56,1.05,6.22,1.59,2.98,2.65,3.94c1.08,.98,2.29,1.67,3.63,2.09s2.65,.63,3.95,.63,2.47-.19,3.69-.56c1.22-.37,2.34-.87,3.37-1.51,.87-.51,1.68-1.06,2.43-1.64,.75-.58,1.36-1.09,1.84-1.51h1.07v9.49c-1,.44-1.95,.86-2.85,1.25s-1.86,.73-2.85,1.01c-1.3,.37-2.51,.66-3.65,.85-1.14,.2-2.7,.29-4.69,.29Z"/><path class="cls-2" d="M435.61,40.52h-28.71V.83h28.71v7.68h-18.53v6.85h17.19v7.68h-17.19v9.81h18.53v7.68Z"/><path class="cls-2" d="M465.66,40.52h-23.24v-7.04h6.5V7.86h-6.5V.83h23.24V7.86h-6.5v25.62h6.5v7.04Z"/><path class="cls-2" d="M505.05,8.5h-12.4V40.52h-10.24V8.5h-12.4V.83h35.03v7.68Z"/><path class="cls-2" d="M536.24,30.73c1-1.21,1.73-2.64,2.21-4.28s.72-3.58,.72-5.8c0-2.38-.28-4.41-.83-6.08-.55-1.67-1.27-3.02-2.16-4.05-.91-1.07-1.95-1.84-3.13-2.32-1.18-.48-2.41-.72-3.69-.72s-2.52,.23-3.67,.69c-1.15,.46-2.2,1.23-3.16,2.29-.89,1-1.61,2.37-2.17,4.12-.56,1.75-.84,3.78-.84,6.09s.27,4.38,.81,6.04c.54,1.66,1.26,3.02,2.15,4.06,.89,1.05,1.93,1.82,3.12,2.32,1.19,.5,2.44,.75,3.76,.75s2.57-.25,3.76-.76c1.19-.51,2.23-1.29,3.12-2.36Zm13.57-10.05c0,6.33-1.81,11.35-5.44,15.07-3.63,3.72-8.64,5.58-15.03,5.58s-11.38-1.86-15.01-5.58c-3.63-3.72-5.44-8.75-5.44-15.07s1.81-11.42,5.44-15.13c3.63-3.71,8.63-5.56,15.01-5.56s11.36,1.85,15.01,5.56c3.64,3.7,5.46,8.75,5.46,15.13Z"/></g></g></g></svg>