<?xml version="1.0" encoding="UTF-8"?><svg id="Layer_2" xmlns="http://www.w3.org/2000/svg" viewBox="0 0 501.79 416.33"><defs><style>.cls-1{opacity:.85;}.cls-2{opacity:.7;}.cls-3{fill:#ca3c4c;}.cls-4{opacity:.24;}.cls-5{opacity:.39;}.cls-6{fill:#b21f67;}.cls-7{fill:#ee6823;}.cls-8{fill:#be2e59;}.cls-9{fill:#d64b3e;}.cls-10{fill:#e25931;}.cls-11{opacity:.54;}</style></defs><g id="Layer_3"><g><g><path class="cls-6" d="M32.89,38.95c1.2-1.53,2.08-3.34,2.66-5.42,.58-2.08,.87-4.53,.87-7.35,0-3.02-.33-5.58-.99-7.7-.66-2.12-1.53-3.83-2.6-5.13-1.09-1.35-2.35-2.33-3.77-2.94-1.42-.61-2.9-.91-4.44-.91s-3.03,.29-4.41,.88c-1.38,.59-2.64,1.55-3.8,2.91-1.07,1.26-1.94,3-2.61,5.22-.67,2.22-1.01,4.79-1.01,7.72s.33,5.55,.98,7.65c.65,2.11,1.51,3.82,2.58,5.15,1.07,1.33,2.32,2.31,3.75,2.94,1.43,.63,2.94,.95,4.52,.95s3.09-.32,4.52-.96c1.43-.64,2.68-1.64,3.75-2.99Zm1.31,11.79c.09,2.24,.66,3.85,1.73,4.82,1.07,.97,2.9,1.46,5.48,1.46,.88,0,1.91-.16,3.11-.47,1.2-.32,2.03-.6,2.5-.84h1.22v8.89c-1.2,.29-2.5,.55-3.89,.77-1.4,.22-3.54,.34-6.43,.34-2.54,0-4.76-.33-6.65-1-1.89-.66-3.47-1.6-4.73-2.82-1.24-1.19-2.17-2.6-2.79-4.22-.62-1.62-.98-3.42-1.09-5.4-7.14-.43-12.7-2.94-16.68-7.55C1.99,40.1,0,33.94,0,26.21S2.18,11.74,6.54,7.04C10.9,2.35,16.91,0,24.58,0s13.67,2.35,18.05,7.04c4.38,4.7,6.57,11.09,6.57,19.17,0,5.97-1.28,11.12-3.85,15.45-2.56,4.34-6.28,7.36-11.15,9.07Z"/><path class="cls-6" d="M100.39,33.14c0,6.22-1.79,10.98-5.38,14.29-3.59,3.31-8.88,4.97-15.87,4.97s-12.27-1.66-15.85-4.97c-3.58-3.31-5.37-8.06-5.37-14.25V1.05h12.37v31.38c0,3.49,.69,6.09,2.08,7.8,1.39,1.71,3.64,2.57,6.76,2.57s5.33-.82,6.75-2.47c1.42-1.64,2.13-4.28,2.13-7.9V1.05h12.37V33.14Z"/><path class="cls-6" d="M146.42,51.34h-34.52V1.05h34.52V10.78h-22.28v8.68h20.67v9.73h-20.67v12.43h22.28v9.73Z"/><path class="cls-6" d="M206.77,51.34h-12.24V17.67l-8.85,21.86h-8.49l-8.85-21.86V51.34h-11.6V1.05h14.3l10.74,25.23L192.48,1.05h14.3V51.34Z"/><path class="cls-6" d="M279.59,35.54c0,4.95-1.99,8.98-5.98,12.08-3.99,3.1-9.4,4.64-16.23,4.64-3.95,0-7.4-.37-10.34-1.1-2.94-.73-5.69-1.66-8.25-2.79v-12.06h1.35c2.54,2.14,5.39,3.78,8.54,4.93,3.15,1.15,6.18,1.72,9.09,1.72,.75,0,1.73-.07,2.95-.2s2.21-.36,2.98-.68c.94-.41,1.71-.91,2.32-1.52s.91-1.51,.91-2.7c0-1.1-.44-2.05-1.33-2.85-.89-.8-2.18-1.41-3.89-1.84-1.79-.45-3.69-.87-5.69-1.27-2-.39-3.87-.9-5.63-1.5-4.02-1.37-6.91-3.24-8.67-5.59-1.76-2.35-2.64-5.27-2.64-8.77,0-4.68,1.99-8.51,5.98-11.47,3.99-2.96,9.11-4.44,15.37-4.44,3.14,0,6.24,.32,9.31,.96,3.07,.64,5.72,1.45,7.97,2.42V15.1h-1.31c-1.92-1.62-4.28-2.98-7.07-4.07-2.79-1.09-5.64-1.64-8.54-1.64-1.03,0-2.05,.07-3.06,.22-1.01,.15-1.99,.42-2.93,.83-.83,.34-1.55,.85-2.15,1.54-.6,.69-.9,1.47-.9,2.35,0,1.33,.48,2.35,1.44,3.06s2.78,1.36,5.45,1.94c1.75,.38,3.43,.75,5.05,1.11,1.61,.36,3.35,.86,5.21,1.49,3.65,1.26,6.35,2.98,8.09,5.15,1.74,2.17,2.61,4.99,2.61,8.46Z"/><path class="cls-6" d="M318.12,38.95c1.2-1.53,2.08-3.34,2.66-5.42,.58-2.08,.87-4.53,.87-7.35,0-3.02-.33-5.58-.99-7.7-.66-2.12-1.53-3.83-2.6-5.13-1.09-1.35-2.35-2.33-3.77-2.94-1.42-.61-2.9-.91-4.44-.91s-3.03,.29-4.41,.88c-1.38,.59-2.64,1.55-3.8,2.91-1.07,1.26-1.94,3-2.61,5.22-.67,2.22-1.01,4.79-1.01,7.72s.33,5.55,.98,7.65c.65,2.11,1.51,3.82,2.58,5.15,1.07,1.33,2.32,2.31,3.75,2.94,1.43,.63,2.94,.95,4.52,.95s3.09-.32,4.52-.96c1.43-.64,2.68-1.64,3.75-2.99Zm16.31-12.73c0,8.02-2.18,14.38-6.54,19.1-4.36,4.72-10.38,7.08-18.08,7.08s-13.69-2.36-18.05-7.08c-4.36-4.72-6.54-11.08-6.54-19.1s2.18-14.47,6.54-19.17,10.37-7.04,18.05-7.04,13.67,2.35,18.05,7.04c4.38,4.7,6.57,11.09,6.57,19.17Z"/><path class="cls-6" d="M393.86,51.34h-12.24V17.67l-8.85,21.86h-8.49l-8.85-21.86V51.34h-11.6V1.05h14.3l10.74,25.23,10.71-25.23h14.3V51.34Z"/><path class="cls-6" d="M436.14,38.95c1.2-1.53,2.08-3.34,2.66-5.42,.58-2.08,.87-4.53,.87-7.35,0-3.02-.33-5.58-.99-7.7-.66-2.12-1.53-3.83-2.6-5.13-1.09-1.35-2.35-2.33-3.77-2.94-1.42-.61-2.9-.91-4.44-.91s-3.03,.29-4.41,.88c-1.38,.59-2.64,1.55-3.8,2.91-1.07,1.26-1.94,3-2.61,5.22-.67,2.22-1.01,4.79-1.01,7.72s.33,5.55,.98,7.65c.65,2.11,1.51,3.82,2.58,5.15,1.07,1.33,2.32,2.31,3.75,2.94,1.43,.63,2.94,.95,4.52,.95s3.09-.32,4.52-.96c1.43-.64,2.68-1.64,3.75-2.99Zm16.31-12.73c0,8.02-2.18,14.38-6.54,19.1-4.36,4.72-10.38,7.08-18.08,7.08s-13.69-2.36-18.05-7.08c-4.36-4.72-6.54-11.08-6.54-19.1s2.18-14.47,6.54-19.17c4.36-4.7,10.37-7.04,18.05-7.04s13.67,2.35,18.05,7.04c4.38,4.7,6.57,11.09,6.57,19.17Z"/><path class="cls-6" d="M500.05,35.54c0,4.95-1.99,8.98-5.98,12.08-3.99,3.1-9.4,4.64-16.23,4.64-3.95,0-7.4-.37-10.34-1.1-2.94-.73-5.69-1.66-8.25-2.79v-12.06h1.35c2.54,2.14,5.39,3.78,8.54,4.93,3.15,1.15,6.18,1.72,9.09,1.72,.75,0,1.73-.07,2.95-.2s2.21-.36,2.98-.68c.94-.41,1.71-.91,2.32-1.52s.91-1.51,.91-2.7c0-1.1-.44-2.05-1.33-2.85-.89-.8-2.18-1.41-3.89-1.84-1.79-.45-3.69-.87-5.69-1.27-2-.39-3.87-.9-5.63-1.5-4.02-1.37-6.91-3.24-8.67-5.59-1.76-2.35-2.64-5.27-2.64-8.77,0-4.68,1.99-8.51,5.98-11.47,3.99-2.96,9.11-4.44,15.37-4.44,3.14,0,6.24,.32,9.31,.96,3.07,.64,5.72,1.45,7.97,2.42V15.1h-1.31c-1.92-1.62-4.28-2.98-7.07-4.07-2.79-1.09-5.64-1.64-8.54-1.64-1.03,0-2.05,.07-3.06,.22-1.01,.15-1.99,.42-2.93,.83-.83,.34-1.55,.85-2.15,1.54-.6,.69-.9,1.47-.9,2.35,0,1.33,.48,2.35,1.44,3.06s2.78,1.36,5.45,1.94c1.75,.38,3.43,.75,5.05,1.11,1.61,.36,3.35,.86,5.21,1.49,3.65,1.26,6.35,2.98,8.09,5.15,1.74,2.17,2.61,4.99,2.61,8.46Z"/></g><g class="cls-1"><path class="cls-8" d="M33.23,109.07c1.2-1.53,2.08-3.34,2.66-5.42,.58-2.08,.87-4.53,.87-7.35,0-3.02-.33-5.58-.99-7.7-.66-2.12-1.53-3.82-2.6-5.13s-2.35-2.33-3.77-2.94c-1.42-.61-2.9-.91-4.44-.91s-3.03,.29-4.41,.88c-1.38,.59-2.64,1.55-3.8,2.91-1.07,1.26-1.94,3-2.61,5.22-.67,2.22-1.01,4.79-1.01,7.72s.33,5.55,.98,7.65c.65,2.11,1.51,3.82,2.58,5.15,1.07,1.33,2.32,2.31,3.75,2.94,1.43,.63,2.94,.95,4.52,.95s3.09-.32,4.52-.96c1.43-.64,2.69-1.64,3.75-2.99Zm1.31,11.79c.09,2.24,.66,3.85,1.73,4.82,1.07,.97,2.9,1.46,5.48,1.46,.88,0,1.91-.16,3.11-.47,1.2-.32,2.03-.6,2.5-.84h1.22v8.89c-1.2,.29-2.5,.55-3.89,.77-1.4,.22-3.54,.34-6.43,.34-2.54,0-4.76-.33-6.65-1-1.89-.66-3.47-1.6-4.73-2.82-1.24-1.19-2.17-2.6-2.79-4.22-.62-1.62-.98-3.42-1.09-5.4-7.14-.43-12.7-2.94-16.68-7.55-3.99-4.61-5.98-10.77-5.98-18.49s2.18-14.47,6.54-19.17c4.36-4.7,10.37-7.04,18.05-7.04s13.67,2.35,18.05,7.04c4.38,4.7,6.57,11.09,6.57,19.17,0,5.97-1.28,11.12-3.85,15.45-2.56,4.34-6.28,7.36-11.15,9.07Z"/><path class="cls-8" d="M100.74,103.26c0,6.22-1.79,10.98-5.38,14.29-3.59,3.31-8.88,4.97-15.87,4.97s-12.27-1.66-15.85-4.97c-3.58-3.31-5.37-8.06-5.37-14.25v-32.12h12.37v31.38c0,3.49,.69,6.09,2.08,7.8,1.39,1.71,3.64,2.57,6.76,2.57s5.33-.82,6.75-2.47c1.42-1.64,2.13-4.28,2.13-7.9v-31.38h12.37v32.09Z"/><polygon class="cls-8" points="146.76 121.47 112.24 121.47 112.24 71.17 146.76 71.17 146.76 80.9 124.49 80.9 124.49 89.58 145.16 89.58 145.16 99.31 124.49 99.31 124.49 111.74 146.76 111.74 146.76 121.47"/><polygon class="cls-8" points="207.12 121.47 194.87 121.47 194.87 87.79 186.03 109.65 177.53 109.65 168.69 87.79 168.69 121.47 157.08 121.47 157.08 71.17 171.38 71.17 182.12 96.41 192.82 71.17 207.12 71.17 207.12 121.47"/><path class="cls-8" d="M279.94,105.66c0,4.95-1.99,8.98-5.98,12.08-3.99,3.1-9.4,4.64-16.23,4.64-3.95,0-7.4-.37-10.34-1.1-2.94-.73-5.69-1.66-8.25-2.79v-12.06h1.35c2.54,2.14,5.39,3.78,8.54,4.93,3.15,1.15,6.18,1.72,9.09,1.72,.75,0,1.73-.07,2.95-.2s2.21-.35,2.98-.68c.94-.4,1.71-.91,2.32-1.52s.91-1.51,.91-2.7c0-1.1-.44-2.05-1.33-2.85-.89-.8-2.18-1.41-3.89-1.84-1.79-.45-3.69-.87-5.69-1.27-2-.39-3.87-.9-5.63-1.5-4.02-1.37-6.91-3.24-8.67-5.59-1.76-2.35-2.64-5.27-2.64-8.77,0-4.68,1.99-8.51,5.98-11.47,3.99-2.96,9.11-4.44,15.37-4.44,3.14,0,6.24,.32,9.31,.96,3.07,.64,5.72,1.45,7.97,2.42v11.59h-1.31c-1.92-1.62-4.28-2.98-7.07-4.07-2.79-1.09-5.64-1.64-8.54-1.64-1.03,0-2.05,.07-3.06,.22-1.01,.15-1.99,.43-2.93,.83-.83,.35-1.55,.85-2.15,1.54-.6,.69-.9,1.47-.9,2.35,0,1.33,.48,2.35,1.44,3.06s2.78,1.36,5.45,1.94c1.75,.38,3.43,.75,5.05,1.11,1.61,.36,3.35,.86,5.21,1.49,3.65,1.26,6.35,2.98,8.09,5.15,1.74,2.17,2.61,4.99,2.61,8.46Z"/><path class="cls-8" d="M318.47,109.07c1.2-1.53,2.08-3.34,2.66-5.42,.58-2.08,.87-4.53,.87-7.35,0-3.02-.33-5.58-.99-7.7-.66-2.12-1.53-3.82-2.6-5.13s-2.35-2.33-3.77-2.94c-1.42-.61-2.9-.91-4.44-.91s-3.03,.29-4.41,.88c-1.38,.59-2.64,1.55-3.8,2.91-1.07,1.26-1.94,3-2.61,5.22-.67,2.22-1.01,4.79-1.01,7.72s.33,5.55,.98,7.65c.65,2.11,1.51,3.82,2.58,5.15,1.07,1.33,2.32,2.31,3.75,2.94,1.43,.63,2.94,.95,4.52,.95s3.09-.32,4.52-.96c1.43-.64,2.69-1.64,3.75-2.99Zm16.31-12.73c0,8.02-2.18,14.38-6.54,19.1-4.36,4.72-10.38,7.08-18.08,7.08s-13.69-2.36-18.05-7.08c-4.36-4.72-6.54-11.08-6.54-19.1s2.18-14.47,6.54-19.17,10.37-7.04,18.05-7.04,13.67,2.35,18.05,7.04c4.38,4.7,6.57,11.09,6.57,19.17Z"/><polygon class="cls-8" points="394.21 121.47 381.96 121.47 381.96 87.79 373.12 109.65 364.62 109.65 355.78 87.79 355.78 121.47 344.18 121.47 344.18 71.17 358.47 71.17 369.21 96.41 379.91 71.17 394.21 71.17 394.21 121.47"/><path class="cls-8" d="M436.49,109.07c1.2-1.53,2.08-3.34,2.66-5.42,.58-2.08,.87-4.53,.87-7.35,0-3.02-.33-5.58-.99-7.7-.66-2.12-1.53-3.82-2.6-5.13s-2.35-2.33-3.77-2.94c-1.42-.61-2.9-.91-4.44-.91s-3.03,.29-4.41,.88c-1.38,.59-2.64,1.55-3.8,2.91-1.07,1.26-1.94,3-2.61,5.22-.67,2.22-1.01,4.79-1.01,7.72s.33,5.55,.98,7.65c.65,2.11,1.51,3.82,2.58,5.15,1.07,1.33,2.32,2.31,3.75,2.94,1.43,.63,2.94,.95,4.52,.95s3.09-.32,4.52-.96c1.43-.64,2.69-1.64,3.75-2.99Zm16.31-12.73c0,8.02-2.18,14.38-6.54,19.1-4.36,4.72-10.38,7.08-18.08,7.08s-13.69-2.36-18.05-7.08c-4.36-4.72-6.54-11.08-6.54-19.1s2.18-14.47,6.54-19.17c4.36-4.7,10.37-7.04,18.05-7.04s13.67,2.35,18.05,7.04c4.38,4.7,6.57,11.09,6.57,19.17Z"/><path class="cls-8" d="M500.4,105.66c0,4.95-1.99,8.98-5.98,12.08-3.99,3.1-9.4,4.64-16.23,4.64-3.95,0-7.4-.37-10.34-1.1-2.94-.73-5.69-1.66-8.25-2.79v-12.06h1.35c2.54,2.14,5.39,3.78,8.54,4.93,3.15,1.15,6.18,1.72,9.09,1.72,.75,0,1.73-.07,2.95-.2s2.21-.35,2.98-.68c.94-.4,1.71-.91,2.32-1.52s.91-1.51,.91-2.7c0-1.1-.44-2.05-1.33-2.85-.89-.8-2.18-1.41-3.89-1.84-1.79-.45-3.69-.87-5.69-1.27-2-.39-3.87-.9-5.63-1.5-4.02-1.37-6.91-3.24-8.67-5.59-1.76-2.35-2.64-5.27-2.64-8.77,0-4.68,1.99-8.51,5.98-11.47,3.99-2.96,9.11-4.44,15.37-4.44,3.14,0,6.24,.32,9.31,.96,3.07,.64,5.72,1.45,7.97,2.42v11.59h-1.31c-1.92-1.62-4.28-2.98-7.07-4.07-2.79-1.09-5.64-1.64-8.54-1.64-1.03,0-2.05,.07-3.06,.22-1.01,.15-1.99,.43-2.93,.83-.83,.35-1.55,.85-2.15,1.54-.6,.69-.9,1.47-.9,2.35,0,1.33,.48,2.35,1.44,3.06s2.78,1.36,5.45,1.94c1.75,.38,3.43,.75,5.05,1.11,1.61,.36,3.35,.86,5.21,1.49,3.65,1.26,6.35,2.98,8.09,5.15,1.74,2.17,2.61,4.99,2.61,8.46Z"/></g><g class="cls-2"><path class="cls-3" d="M33.58,179.2c1.2-1.53,2.08-3.34,2.66-5.42,.58-2.08,.87-4.53,.87-7.35,0-3.02-.33-5.58-.99-7.7-.66-2.12-1.53-3.82-2.6-5.13s-2.35-2.33-3.77-2.94c-1.42-.61-2.9-.91-4.44-.91s-3.03,.29-4.41,.88c-1.38,.59-2.64,1.55-3.8,2.91-1.07,1.26-1.94,3-2.61,5.22-.67,2.22-1.01,4.79-1.01,7.72s.33,5.55,.98,7.65c.65,2.11,1.51,3.82,2.58,5.15,1.07,1.33,2.32,2.31,3.75,2.94,1.43,.63,2.94,.95,4.52,.95s3.09-.32,4.52-.96c1.43-.64,2.69-1.64,3.75-2.99Zm1.31,11.79c.09,2.24,.66,3.85,1.73,4.82,1.07,.97,2.9,1.46,5.48,1.46,.88,0,1.91-.16,3.11-.47,1.2-.32,2.03-.6,2.5-.84h1.22v8.89c-1.2,.29-2.5,.55-3.89,.77-1.4,.22-3.54,.34-6.43,.34-2.54,0-4.76-.33-6.65-1-1.89-.66-3.47-1.6-4.73-2.82-1.24-1.19-2.17-2.6-2.79-4.22-.62-1.62-.98-3.42-1.09-5.4-7.14-.43-12.7-2.94-16.68-7.55-3.99-4.61-5.98-10.77-5.98-18.49s2.18-14.47,6.54-19.17,10.37-7.04,18.05-7.04,13.67,2.35,18.05,7.04c4.38,4.7,6.57,11.09,6.57,19.17,0,5.97-1.28,11.12-3.85,15.45-2.56,4.34-6.28,7.36-11.15,9.07Z"/><path class="cls-3" d="M101.08,173.39c0,6.22-1.79,10.98-5.38,14.29-3.59,3.31-8.88,4.97-15.87,4.97s-12.27-1.66-15.85-4.97c-3.58-3.31-5.37-8.06-5.37-14.25v-32.12h12.37v31.38c0,3.49,.69,6.09,2.08,7.8,1.39,1.71,3.64,2.57,6.76,2.57s5.33-.82,6.75-2.47c1.42-1.64,2.13-4.28,2.13-7.9v-31.38h12.37v32.09Z"/><polygon class="cls-3" points="147.11 191.6 112.59 191.6 112.59 141.3 147.11 141.3 147.11 151.03 124.84 151.03 124.84 159.71 145.51 159.71 145.51 169.44 124.84 169.44 124.84 181.87 147.11 181.87 147.11 191.6"/><polygon class="cls-3" points="207.47 191.6 195.22 191.6 195.22 157.92 186.38 179.77 177.88 179.77 169.04 157.92 169.04 191.6 157.43 191.6 157.43 141.3 171.73 141.3 182.47 166.53 193.17 141.3 207.47 141.3 207.47 191.6"/><path class="cls-3" d="M280.29,175.79c0,4.95-1.99,8.98-5.98,12.08-3.99,3.1-9.4,4.64-16.23,4.64-3.95,0-7.4-.37-10.34-1.1-2.94-.73-5.69-1.66-8.25-2.79v-12.06h1.35c2.54,2.14,5.39,3.78,8.54,4.93,3.15,1.15,6.18,1.72,9.09,1.72,.75,0,1.73-.07,2.95-.2s2.21-.35,2.98-.68c.94-.4,1.71-.91,2.32-1.52s.91-1.51,.91-2.7c0-1.1-.44-2.05-1.33-2.85-.89-.8-2.18-1.41-3.89-1.84-1.79-.45-3.69-.87-5.69-1.27-2-.39-3.87-.9-5.63-1.5-4.02-1.37-6.91-3.24-8.67-5.59-1.76-2.35-2.64-5.27-2.64-8.77,0-4.68,1.99-8.51,5.98-11.47,3.99-2.96,9.11-4.44,15.37-4.44,3.14,0,6.24,.32,9.31,.96,3.07,.64,5.72,1.45,7.97,2.42v11.59h-1.31c-1.92-1.62-4.28-2.98-7.07-4.07-2.79-1.09-5.64-1.64-8.54-1.64-1.03,0-2.05,.07-3.06,.22-1.01,.15-1.99,.43-2.93,.83-.83,.35-1.55,.85-2.15,1.54-.6,.69-.9,1.47-.9,2.35,0,1.33,.48,2.35,1.44,3.06s2.78,1.36,5.45,1.94c1.75,.38,3.43,.75,5.05,1.11,1.61,.36,3.35,.86,5.21,1.49,3.65,1.26,6.35,2.98,8.09,5.15,1.74,2.17,2.61,4.99,2.61,8.46Z"/><path class="cls-3" d="M318.82,179.2c1.2-1.53,2.08-3.34,2.66-5.42,.58-2.08,.87-4.53,.87-7.35,0-3.02-.33-5.58-.99-7.7-.66-2.12-1.53-3.82-2.6-5.13s-2.35-2.33-3.77-2.94c-1.42-.61-2.9-.91-4.44-.91s-3.03,.29-4.41,.88c-1.38,.59-2.64,1.55-3.8,2.91-1.07,1.26-1.94,3-2.61,5.22-.67,2.22-1.01,4.79-1.01,7.72s.33,5.55,.98,7.65c.65,2.11,1.51,3.82,2.58,5.15,1.07,1.33,2.32,2.31,3.75,2.94,1.43,.63,2.94,.95,4.52,.95s3.09-.32,4.52-.96c1.43-.64,2.69-1.64,3.75-2.99Zm16.31-12.73c0,8.02-2.18,14.38-6.54,19.1-4.36,4.72-10.38,7.08-18.08,7.08s-13.69-2.36-18.05-7.08c-4.36-4.72-6.54-11.08-6.54-19.1s2.18-14.47,6.54-19.17,10.37-7.04,18.05-7.04,13.67,2.35,18.05,7.04c4.38,4.7,6.57,11.09,6.57,19.17Z"/><polygon class="cls-3" points="394.56 191.6 382.31 191.6 382.31 157.92 373.47 179.77 364.97 179.77 356.13 157.92 356.13 191.6 344.52 191.6 344.52 141.3 358.82 141.3 369.56 166.53 380.26 141.3 394.56 141.3 394.56 191.6"/><path class="cls-3" d="M436.83,179.2c1.2-1.53,2.08-3.34,2.66-5.42,.58-2.08,.87-4.53,.87-7.35,0-3.02-.33-5.58-.99-7.7-.66-2.12-1.53-3.82-2.6-5.13s-2.35-2.33-3.77-2.94c-1.42-.61-2.9-.91-4.44-.91s-3.03,.29-4.41,.88c-1.38,.59-2.64,1.55-3.8,2.91-1.07,1.26-1.94,3-2.61,5.22-.67,2.22-1.01,4.79-1.01,7.72s.33,5.55,.98,7.65c.65,2.11,1.51,3.82,2.58,5.15,1.07,1.33,2.32,2.31,3.75,2.94,1.43,.63,2.94,.95,4.52,.95s3.09-.32,4.52-.96c1.43-.64,2.69-1.64,3.75-2.99Zm16.31-12.73c0,8.02-2.18,14.38-6.54,19.1-4.36,4.72-10.38,7.08-18.08,7.08s-13.69-2.36-18.05-7.08c-4.36-4.72-6.54-11.08-6.54-19.1s2.18-14.47,6.54-19.17c4.36-4.7,10.37-7.04,18.05-7.04s13.67,2.35,18.05,7.04c4.38,4.7,6.57,11.09,6.57,19.17Z"/><path class="cls-3" d="M500.75,175.79c0,4.95-1.99,8.98-5.98,12.08-3.99,3.1-9.4,4.64-16.23,4.64-3.95,0-7.4-.37-10.34-1.1-2.94-.73-5.69-1.66-8.25-2.79v-12.06h1.35c2.54,2.14,5.39,3.78,8.54,4.93,3.15,1.15,6.18,1.72,9.09,1.72,.75,0,1.73-.07,2.95-.2s2.21-.35,2.98-.68c.94-.4,1.71-.91,2.32-1.52s.91-1.51,.91-2.7c0-1.1-.44-2.05-1.33-2.85-.89-.8-2.18-1.41-3.89-1.84-1.79-.45-3.69-.87-5.69-1.27-2-.39-3.87-.9-5.63-1.5-4.02-1.37-6.91-3.24-8.67-5.59-1.76-2.35-2.64-5.27-2.64-8.77,0-4.68,1.99-8.51,5.98-11.47,3.99-2.96,9.11-4.44,15.37-4.44,3.14,0,6.24,.32,9.31,.96,3.07,.64,5.72,1.45,7.97,2.42v11.59h-1.31c-1.92-1.62-4.28-2.98-7.07-4.07-2.79-1.09-5.64-1.64-8.54-1.64-1.03,0-2.05,.07-3.06,.22-1.01,.15-1.99,.43-2.93,.83-.83,.35-1.55,.85-2.15,1.54-.6,.69-.9,1.47-.9,2.35,0,1.33,.48,2.35,1.44,3.06s2.78,1.36,5.45,1.94c1.75,.38,3.43,.75,5.05,1.11,1.61,.36,3.35,.86,5.21,1.49,3.65,1.26,6.35,2.98,8.09,5.15,1.74,2.17,2.61,4.99,2.61,8.46Z"/></g><g class="cls-11"><path class="cls-9" d="M33.93,249.32c1.2-1.53,2.08-3.34,2.66-5.42,.58-2.08,.87-4.53,.87-7.35,0-3.02-.33-5.58-.99-7.7-.66-2.12-1.53-3.82-2.6-5.13s-2.35-2.33-3.77-2.94c-1.42-.61-2.9-.91-4.44-.91s-3.03,.29-4.41,.88c-1.38,.59-2.64,1.55-3.8,2.91-1.07,1.26-1.94,3-2.61,5.22-.67,2.22-1.01,4.79-1.01,7.72s.33,5.55,.98,7.65c.65,2.11,1.51,3.82,2.58,5.15,1.07,1.33,2.32,2.31,3.75,2.94,1.43,.63,2.94,.95,4.52,.95s3.09-.32,4.52-.96c1.43-.64,2.69-1.64,3.75-2.99Zm1.31,11.79c.09,2.24,.66,3.85,1.73,4.82,1.07,.97,2.9,1.46,5.48,1.46,.88,0,1.91-.16,3.11-.47,1.2-.32,2.03-.6,2.5-.84h1.22v8.89c-1.2,.29-2.5,.55-3.89,.77-1.4,.22-3.54,.34-6.43,.34-2.54,0-4.76-.33-6.65-1-1.89-.66-3.47-1.6-4.73-2.82-1.24-1.19-2.17-2.6-2.79-4.22-.62-1.62-.98-3.42-1.09-5.4-7.14-.43-12.7-2.94-16.68-7.55-3.99-4.61-5.98-10.77-5.98-18.49s2.18-14.47,6.54-19.17c4.36-4.7,10.37-7.04,18.05-7.04s13.67,2.35,18.05,7.04c4.38,4.7,6.57,11.09,6.57,19.17,0,5.97-1.28,11.12-3.85,15.45-2.56,4.34-6.28,7.36-11.15,9.07Z"/><path class="cls-9" d="M101.43,243.51c0,6.22-1.79,10.98-5.38,14.29-3.59,3.31-8.88,4.97-15.87,4.97s-12.27-1.66-15.85-4.97c-3.58-3.31-5.37-8.06-5.37-14.25v-32.12h12.37v31.38c0,3.49,.69,6.09,2.08,7.8,1.39,1.71,3.64,2.57,6.76,2.57s5.33-.82,6.75-2.47c1.42-1.64,2.13-4.28,2.13-7.9v-31.38h12.37v32.09Z"/><polygon class="cls-9" points="147.46 261.72 112.94 261.72 112.94 211.42 147.46 211.42 147.46 221.15 125.18 221.15 125.18 229.83 145.86 229.83 145.86 239.56 125.18 239.56 125.18 251.99 147.46 251.99 147.46 261.72"/><polygon class="cls-9" points="207.82 261.72 195.57 261.72 195.57 228.04 186.72 249.9 178.23 249.9 169.38 228.04 169.38 261.72 157.78 261.72 157.78 211.42 172.08 211.42 182.81 236.66 193.52 211.42 207.82 211.42 207.82 261.72"/><path class="cls-9" d="M280.64,245.91c0,4.95-1.99,8.98-5.98,12.08-3.99,3.1-9.4,4.64-16.23,4.64-3.95,0-7.4-.37-10.34-1.1-2.94-.73-5.69-1.66-8.25-2.79v-12.06h1.35c2.54,2.14,5.39,3.78,8.54,4.93,3.15,1.15,6.18,1.72,9.09,1.72,.75,0,1.73-.07,2.95-.2s2.21-.35,2.98-.68c.94-.4,1.71-.91,2.32-1.52s.91-1.51,.91-2.7c0-1.1-.44-2.05-1.33-2.85-.89-.8-2.18-1.41-3.89-1.84-1.79-.45-3.69-.87-5.69-1.27-2-.39-3.87-.9-5.63-1.5-4.02-1.37-6.91-3.24-8.67-5.59-1.76-2.35-2.64-5.27-2.64-8.77,0-4.68,1.99-8.51,5.98-11.47,3.99-2.96,9.11-4.44,15.37-4.44,3.14,0,6.24,.32,9.31,.96,3.07,.64,5.72,1.45,7.97,2.42v11.59h-1.31c-1.92-1.62-4.28-2.98-7.07-4.07-2.79-1.09-5.64-1.64-8.54-1.64-1.03,0-2.05,.07-3.06,.22-1.01,.15-1.99,.43-2.93,.83-.83,.35-1.55,.85-2.15,1.54-.6,.69-.9,1.47-.9,2.35,0,1.33,.48,2.35,1.44,3.06s2.78,1.36,5.45,1.94c1.75,.38,3.43,.75,5.05,1.11,1.61,.36,3.35,.86,5.21,1.49,3.65,1.26,6.35,2.98,8.09,5.15,1.74,2.17,2.61,4.99,2.61,8.46Z"/><path class="cls-9" d="M319.17,249.32c1.2-1.53,2.08-3.34,2.66-5.42,.58-2.08,.87-4.53,.87-7.35,0-3.02-.33-5.58-.99-7.7-.66-2.12-1.53-3.82-2.6-5.13s-2.35-2.33-3.77-2.94c-1.42-.61-2.9-.91-4.44-.91s-3.03,.29-4.41,.88c-1.38,.59-2.64,1.55-3.8,2.91-1.07,1.26-1.94,3-2.61,5.22-.67,2.22-1.01,4.79-1.01,7.72s.33,5.55,.98,7.65c.65,2.11,1.51,3.82,2.58,5.15,1.07,1.33,2.32,2.31,3.75,2.94,1.43,.63,2.94,.95,4.52,.95s3.09-.32,4.52-.96c1.43-.64,2.69-1.64,3.75-2.99Zm16.31-12.73c0,8.02-2.18,14.38-6.54,19.1-4.36,4.72-10.38,7.08-18.08,7.08s-13.69-2.36-18.05-7.08c-4.36-4.72-6.54-11.08-6.54-19.1s2.18-14.47,6.54-19.17,10.37-7.04,18.05-7.04,13.67,2.35,18.05,7.04c4.38,4.7,6.57,11.09,6.57,19.17Z"/><polygon class="cls-9" points="394.91 261.72 382.66 261.72 382.66 228.04 373.82 249.9 365.32 249.9 356.47 228.04 356.47 261.72 344.87 261.72 344.87 211.42 359.17 211.42 369.9 236.66 380.61 211.42 394.91 211.42 394.91 261.72"/><path class="cls-9" d="M437.18,249.32c1.2-1.53,2.08-3.34,2.66-5.42,.58-2.08,.87-4.53,.87-7.35,0-3.02-.33-5.58-.99-7.7-.66-2.12-1.53-3.82-2.6-5.13s-2.35-2.33-3.77-2.94c-1.42-.61-2.9-.91-4.44-.91s-3.03,.29-4.41,.88c-1.38,.59-2.64,1.55-3.8,2.91-1.07,1.26-1.94,3-2.61,5.22-.67,2.22-1.01,4.79-1.01,7.72s.33,5.55,.98,7.65c.65,2.11,1.51,3.82,2.58,5.15,1.07,1.33,2.32,2.31,3.75,2.94,1.43,.63,2.94,.95,4.52,.95s3.09-.32,4.52-.96c1.43-.64,2.69-1.64,3.75-2.99Zm16.31-12.73c0,8.02-2.18,14.38-6.54,19.1-4.36,4.72-10.38,7.08-18.08,7.08s-13.69-2.36-18.05-7.08c-4.36-4.72-6.54-11.08-6.54-19.1s2.18-14.47,6.54-19.17c4.36-4.7,10.37-7.04,18.05-7.04s13.67,2.35,18.05,7.04c4.38,4.7,6.57,11.09,6.57,19.17Z"/><path class="cls-9" d="M501.1,245.91c0,4.95-1.99,8.98-5.98,12.08-3.99,3.1-9.4,4.64-16.23,4.64-3.95,0-7.4-.37-10.34-1.1-2.94-.73-5.69-1.66-8.25-2.79v-12.06h1.35c2.54,2.14,5.39,3.78,8.54,4.93,3.15,1.15,6.18,1.72,9.09,1.72,.75,0,1.73-.07,2.95-.2s2.21-.35,2.98-.68c.94-.4,1.71-.91,2.32-1.52s.91-1.51,.91-2.7c0-1.1-.44-2.05-1.33-2.85-.89-.8-2.18-1.41-3.89-1.84-1.79-.45-3.69-.87-5.69-1.27-2-.39-3.87-.9-5.63-1.5-4.02-1.37-6.91-3.24-8.67-5.59-1.76-2.35-2.64-5.27-2.64-8.77,0-4.68,1.99-8.51,5.98-11.47,3.99-2.96,9.11-4.44,15.37-4.44,3.14,0,6.24,.32,9.31,.96,3.07,.64,5.72,1.45,7.97,2.42v11.59h-1.31c-1.92-1.62-4.28-2.98-7.07-4.07-2.79-1.09-5.64-1.64-8.54-1.64-1.03,0-2.05,.07-3.06,.22-1.01,.15-1.99,.43-2.93,.83-.83,.35-1.55,.85-2.15,1.54-.6,.69-.9,1.47-.9,2.35,0,1.33,.48,2.35,1.44,3.06s2.78,1.36,5.45,1.94c1.75,.38,3.43,.75,5.05,1.11,1.61,.36,3.35,.86,5.21,1.49,3.65,1.26,6.35,2.98,8.09,5.15,1.74,2.17,2.61,4.99,2.61,8.46Z"/></g><g class="cls-5"><path class="cls-10" d="M34.28,319.45c1.2-1.53,2.08-3.34,2.66-5.42,.58-2.08,.87-4.53,.87-7.35,0-3.02-.33-5.58-.99-7.7-.66-2.12-1.53-3.82-2.6-5.13s-2.35-2.33-3.77-2.94c-1.42-.61-2.9-.91-4.44-.91s-3.03,.29-4.41,.88c-1.38,.59-2.64,1.55-3.8,2.91-1.07,1.26-1.94,3-2.61,5.22-.67,2.22-1.01,4.79-1.01,7.72s.33,5.55,.98,7.65c.65,2.11,1.51,3.82,2.58,5.15,1.07,1.33,2.32,2.31,3.75,2.94,1.43,.63,2.94,.95,4.52,.95s3.09-.32,4.52-.96c1.43-.64,2.69-1.64,3.75-2.99Zm1.31,11.79c.09,2.24,.66,3.85,1.73,4.82,1.07,.97,2.9,1.46,5.48,1.46,.88,0,1.91-.16,3.11-.47,1.2-.32,2.03-.6,2.5-.84h1.22v8.89c-1.2,.29-2.5,.55-3.89,.77-1.4,.22-3.54,.34-6.43,.34-2.54,0-4.76-.33-6.65-1-1.89-.66-3.47-1.6-4.73-2.82-1.24-1.19-2.17-2.6-2.79-4.22-.62-1.62-.98-3.42-1.09-5.4-7.14-.43-12.7-2.94-16.68-7.55-3.99-4.61-5.98-10.77-5.98-18.49s2.18-14.47,6.54-19.17c4.36-4.7,10.37-7.04,18.05-7.04s13.67,2.35,18.05,7.04c4.38,4.7,6.57,11.09,6.57,19.17,0,5.97-1.28,11.12-3.85,15.45-2.56,4.34-6.28,7.36-11.15,9.07Z"/><path class="cls-10" d="M101.78,313.64c0,6.22-1.79,10.98-5.38,14.29-3.59,3.31-8.88,4.97-15.87,4.97s-12.27-1.66-15.85-4.97c-3.58-3.31-5.37-8.06-5.37-14.25v-32.12h12.37v31.38c0,3.49,.69,6.09,2.08,7.8,1.39,1.71,3.64,2.57,6.76,2.57s5.33-.82,6.75-2.47c1.42-1.64,2.13-4.28,2.13-7.9v-31.38h12.37v32.09Z"/><polygon class="cls-10" points="147.81 331.85 113.29 331.85 113.29 281.55 147.81 281.55 147.81 291.28 125.53 291.28 125.53 299.96 146.21 299.96 146.21 309.69 125.53 309.69 125.53 322.12 147.81 322.12 147.81 331.85"/><polygon class="cls-10" points="208.16 331.85 195.92 331.85 195.92 298.17 187.07 320.02 178.58 320.02 169.73 298.17 169.73 331.85 158.13 331.85 158.13 281.55 172.43 281.55 183.16 306.78 193.87 281.55 208.16 281.55 208.16 331.85"/><path class="cls-10" d="M280.99,316.04c0,4.95-1.99,8.98-5.98,12.08-3.99,3.1-9.4,4.64-16.23,4.64-3.95,0-7.4-.37-10.34-1.1-2.94-.73-5.69-1.66-8.25-2.79v-12.06h1.35c2.54,2.14,5.39,3.78,8.54,4.93,3.15,1.15,6.18,1.72,9.09,1.72,.75,0,1.73-.07,2.95-.2s2.21-.35,2.98-.68c.94-.4,1.71-.91,2.32-1.52s.91-1.51,.91-2.7c0-1.1-.44-2.05-1.33-2.85-.89-.8-2.18-1.41-3.89-1.84-1.79-.45-3.69-.87-5.69-1.27-2-.39-3.87-.9-5.63-1.5-4.02-1.37-6.91-3.24-8.67-5.59-1.76-2.35-2.64-5.27-2.64-8.77,0-4.68,1.99-8.51,5.98-11.47,3.99-2.96,9.11-4.44,15.37-4.44,3.14,0,6.24,.32,9.31,.96,3.07,.64,5.72,1.45,7.97,2.42v11.59h-1.31c-1.92-1.62-4.28-2.98-7.07-4.07-2.79-1.09-5.64-1.64-8.54-1.64-1.03,0-2.05,.07-3.06,.22-1.01,.15-1.99,.43-2.93,.83-.83,.35-1.55,.85-2.15,1.54-.6,.69-.9,1.47-.9,2.35,0,1.33,.48,2.35,1.44,3.06s2.78,1.36,5.45,1.94c1.75,.38,3.43,.75,5.05,1.11,1.61,.36,3.35,.86,5.21,1.49,3.65,1.26,6.35,2.98,8.09,5.15,1.74,2.17,2.61,4.99,2.61,8.46Z"/><path class="cls-10" d="M319.51,319.45c1.2-1.53,2.08-3.34,2.66-5.42,.58-2.08,.87-4.53,.87-7.35,0-3.02-.33-5.58-.99-7.7-.66-2.12-1.53-3.82-2.6-5.13s-2.35-2.33-3.77-2.94c-1.42-.61-2.9-.91-4.44-.91s-3.03,.29-4.41,.88c-1.38,.59-2.64,1.55-3.8,2.91-1.07,1.26-1.94,3-2.61,5.22-.67,2.22-1.01,4.79-1.01,7.72s.33,5.55,.98,7.65c.65,2.11,1.51,3.82,2.58,5.15,1.07,1.33,2.32,2.31,3.75,2.94,1.43,.63,2.94,.95,4.52,.95s3.09-.32,4.52-.96c1.43-.64,2.69-1.64,3.75-2.99Zm16.31-12.73c0,8.02-2.18,14.38-6.54,19.1-4.36,4.72-10.38,7.08-18.08,7.08s-13.69-2.36-18.05-7.08c-4.36-4.72-6.54-11.08-6.54-19.1s2.18-14.47,6.54-19.17,10.37-7.04,18.05-7.04,13.67,2.35,18.05,7.04c4.38,4.7,6.57,11.09,6.57,19.17Z"/><polygon class="cls-10" points="395.25 331.85 383.01 331.85 383.01 298.17 374.16 320.02 365.67 320.02 356.82 298.17 356.82 331.85 345.22 331.85 345.22 281.55 359.52 281.55 370.25 306.78 380.96 281.55 395.25 281.55 395.25 331.85"/><path class="cls-10" d="M437.53,319.45c1.2-1.53,2.08-3.34,2.66-5.42,.58-2.08,.87-4.53,.87-7.35,0-3.02-.33-5.58-.99-7.7-.66-2.12-1.53-3.82-2.6-5.13s-2.35-2.33-3.77-2.94c-1.42-.61-2.9-.91-4.44-.91s-3.03,.29-4.41,.88c-1.38,.59-2.64,1.55-3.8,2.91-1.07,1.26-1.94,3-2.61,5.22-.67,2.22-1.01,4.79-1.01,7.72s.33,5.55,.98,7.65c.65,2.11,1.51,3.82,2.58,5.15,1.07,1.33,2.32,2.31,3.75,2.94,1.43,.63,2.94,.95,4.52,.95s3.09-.32,4.52-.96c1.43-.64,2.69-1.64,3.75-2.99Zm16.31-12.73c0,8.02-2.18,14.38-6.54,19.1-4.36,4.72-10.38,7.08-18.08,7.08s-13.69-2.36-18.05-7.08c-4.36-4.72-6.54-11.08-6.54-19.1s2.18-14.47,6.54-19.17c4.36-4.7,10.37-7.04,18.05-7.04s13.67,2.35,18.05,7.04c4.38,4.7,6.57,11.09,6.57,19.17Z"/><path class="cls-10" d="M501.44,316.04c0,4.95-1.99,8.98-5.98,12.08-3.99,3.1-9.4,4.64-16.23,4.64-3.95,0-7.4-.37-10.34-1.1-2.94-.73-5.69-1.66-8.25-2.79v-12.06h1.35c2.54,2.14,5.39,3.78,8.54,4.93,3.15,1.15,6.18,1.72,9.09,1.72,.75,0,1.73-.07,2.95-.2s2.21-.35,2.98-.68c.94-.4,1.71-.91,2.32-1.52s.91-1.51,.91-2.7c0-1.1-.44-2.05-1.33-2.85-.89-.8-2.18-1.41-3.89-1.84-1.79-.45-3.69-.87-5.69-1.27-2-.39-3.87-.9-5.63-1.5-4.02-1.37-6.91-3.24-8.67-5.59-1.76-2.35-2.64-5.27-2.64-8.77,0-4.68,1.99-8.51,5.98-11.47,3.99-2.96,9.11-4.44,15.37-4.44,3.14,0,6.24,.32,9.31,.96,3.07,.64,5.72,1.45,7.97,2.42v11.59h-1.31c-1.92-1.62-4.28-2.98-7.07-4.07-2.79-1.09-5.64-1.64-8.54-1.64-1.03,0-2.05,.07-3.06,.22-1.01,.15-1.99,.43-2.93,.83-.83,.35-1.55,.85-2.15,1.54-.6,.69-.9,1.47-.9,2.35,0,1.33,.48,2.35,1.44,3.06s2.78,1.36,5.45,1.94c1.75,.38,3.43,.75,5.05,1.11,1.61,.36,3.35,.86,5.21,1.49,3.65,1.26,6.35,2.98,8.09,5.15,1.74,2.17,2.61,4.99,2.61,8.46Z"/></g><g class="cls-4"><path class="cls-7" d="M34.63,389.57c1.2-1.53,2.08-3.34,2.66-5.42,.58-2.08,.87-4.53,.87-7.35,0-3.02-.33-5.58-.99-7.7-.66-2.12-1.53-3.83-2.6-5.13-1.09-1.35-2.35-2.33-3.77-2.94-1.42-.61-2.9-.91-4.44-.91s-3.03,.29-4.41,.88c-1.38,.59-2.64,1.55-3.8,2.91-1.07,1.26-1.94,3-2.61,5.22-.67,2.22-1.01,4.79-1.01,7.72s.33,5.55,.98,7.65c.65,2.11,1.51,3.82,2.58,5.15,1.07,1.33,2.32,2.31,3.75,2.94,1.43,.63,2.94,.95,4.52,.95s3.09-.32,4.52-.96c1.43-.64,2.68-1.64,3.75-2.99Zm1.31,11.79c.09,2.24,.66,3.85,1.73,4.82,1.07,.97,2.9,1.46,5.48,1.46,.88,0,1.91-.16,3.11-.47,1.2-.32,2.03-.6,2.5-.84h1.22v8.89c-1.2,.29-2.5,.55-3.89,.77-1.4,.22-3.54,.34-6.43,.34-2.54,0-4.76-.33-6.65-1-1.89-.66-3.47-1.6-4.73-2.82-1.24-1.19-2.17-2.6-2.79-4.22-.62-1.62-.98-3.42-1.09-5.4-7.14-.43-12.7-2.94-16.68-7.55-3.99-4.61-5.98-10.77-5.98-18.49s2.18-14.47,6.54-19.17c4.36-4.7,10.37-7.04,18.05-7.04s13.67,2.35,18.05,7.04c4.38,4.7,6.57,11.09,6.57,19.17,0,5.97-1.28,11.12-3.85,15.45-2.56,4.34-6.28,7.36-11.15,9.07Z"/><path class="cls-7" d="M102.13,383.76c0,6.22-1.79,10.98-5.38,14.29-3.59,3.31-8.88,4.97-15.87,4.97s-12.27-1.66-15.85-4.97c-3.58-3.31-5.37-8.06-5.37-14.25v-32.12h12.37v31.38c0,3.49,.69,6.09,2.08,7.8,1.39,1.71,3.64,2.57,6.76,2.57s5.33-.82,6.75-2.47c1.42-1.64,2.13-4.28,2.13-7.9v-31.38h12.37v32.09Z"/><path class="cls-7" d="M148.16,401.97h-34.52v-50.3h34.52v9.73h-22.28v8.68h20.67v9.73h-20.67v12.43h22.28v9.73Z"/><path class="cls-7" d="M208.51,401.97h-12.24v-33.68l-8.85,21.86h-8.49l-8.85-21.86v33.68h-11.6v-50.3h14.3l10.74,25.23,10.71-25.23h14.3v50.3Z"/><path class="cls-7" d="M281.34,386.16c0,4.95-1.99,8.98-5.98,12.08-3.99,3.1-9.4,4.64-16.23,4.64-3.95,0-7.4-.37-10.34-1.1-2.94-.73-5.69-1.66-8.25-2.79v-12.06h1.35c2.54,2.14,5.39,3.78,8.54,4.93,3.15,1.15,6.18,1.72,9.09,1.72,.75,0,1.73-.07,2.95-.2s2.21-.36,2.98-.68c.94-.41,1.71-.91,2.32-1.52s.91-1.51,.91-2.7c0-1.1-.44-2.05-1.33-2.85-.89-.8-2.18-1.41-3.89-1.84-1.79-.45-3.69-.87-5.69-1.27-2-.39-3.87-.9-5.63-1.5-4.02-1.37-6.91-3.24-8.67-5.59-1.76-2.35-2.64-5.27-2.64-8.77,0-4.68,1.99-8.51,5.98-11.47,3.99-2.96,9.11-4.44,15.37-4.44,3.14,0,6.24,.32,9.31,.96,3.07,.64,5.72,1.45,7.97,2.42v11.59h-1.31c-1.92-1.62-4.28-2.98-7.07-4.07-2.79-1.09-5.64-1.64-8.54-1.64-1.03,0-2.05,.07-3.06,.22-1.01,.15-1.99,.42-2.93,.83-.83,.34-1.55,.85-2.15,1.54-.6,.69-.9,1.47-.9,2.35,0,1.33,.48,2.35,1.44,3.06s2.78,1.36,5.45,1.94c1.75,.38,3.43,.75,5.05,1.11,1.61,.36,3.35,.86,5.21,1.49,3.65,1.26,6.35,2.98,8.09,5.15,1.74,2.17,2.61,4.99,2.61,8.46Z"/><path class="cls-7" d="M319.86,389.57c1.2-1.53,2.08-3.34,2.66-5.42,.58-2.08,.87-4.53,.87-7.35,0-3.02-.33-5.58-.99-7.7-.66-2.12-1.53-3.83-2.6-5.13-1.09-1.35-2.35-2.33-3.77-2.94-1.42-.61-2.9-.91-4.44-.91s-3.03,.29-4.41,.88c-1.38,.59-2.64,1.55-3.8,2.91-1.07,1.26-1.94,3-2.61,5.22-.67,2.22-1.01,4.79-1.01,7.72s.33,5.55,.98,7.65c.65,2.11,1.51,3.82,2.58,5.15,1.07,1.33,2.32,2.31,3.75,2.94,1.43,.63,2.94,.95,4.52,.95s3.09-.32,4.52-.96c1.43-.64,2.68-1.64,3.75-2.99Zm16.31-12.73c0,8.02-2.18,14.38-6.54,19.1-4.36,4.72-10.38,7.08-18.08,7.08s-13.69-2.36-18.05-7.08c-4.36-4.72-6.54-11.08-6.54-19.1s2.18-14.47,6.54-19.17,10.37-7.04,18.05-7.04,13.67,2.35,18.05,7.04c4.38,4.7,6.57,11.09,6.57,19.17Z"/><path class="cls-7" d="M395.6,401.97h-12.24v-33.68l-8.85,21.86h-8.49l-8.85-21.86v33.68h-11.6v-50.3h14.3l10.74,25.23,10.71-25.23h14.3v50.3Z"/><path class="cls-7" d="M437.88,389.57c1.2-1.53,2.08-3.34,2.66-5.42,.58-2.08,.87-4.53,.87-7.35,0-3.02-.33-5.58-.99-7.7-.66-2.12-1.53-3.83-2.6-5.13-1.09-1.35-2.35-2.33-3.77-2.94-1.42-.61-2.9-.91-4.44-.91s-3.03,.29-4.41,.88c-1.38,.59-2.64,1.55-3.8,2.91-1.07,1.26-1.94,3-2.61,5.22-.67,2.22-1.01,4.79-1.01,7.72s.33,5.55,.98,7.65c.65,2.11,1.51,3.82,2.58,5.15,1.07,1.33,2.32,2.31,3.75,2.94,1.43,.63,2.94,.95,4.52,.95s3.09-.32,4.52-.96c1.43-.64,2.68-1.64,3.75-2.99Zm16.31-12.73c0,8.02-2.18,14.38-6.54,19.1-4.36,4.72-10.38,7.08-18.08,7.08s-13.69-2.36-18.05-7.08c-4.36-4.72-6.54-11.08-6.54-19.1s2.18-14.47,6.54-19.17c4.36-4.7,10.37-7.04,18.05-7.04s13.67,2.35,18.05,7.04c4.38,4.7,6.57,11.09,6.57,19.17Z"/><path class="cls-7" d="M501.79,386.16c0,4.95-1.99,8.98-5.98,12.08-3.99,3.1-9.4,4.64-16.23,4.64-3.95,0-7.4-.37-10.34-1.1-2.94-.73-5.69-1.66-8.25-2.79v-12.06h1.35c2.54,2.14,5.39,3.78,8.54,4.93,3.15,1.15,6.18,1.72,9.09,1.72,.75,0,1.73-.07,2.95-.2s2.21-.36,2.98-.68c.94-.41,1.71-.91,2.32-1.52s.91-1.51,.91-2.7c0-1.1-.44-2.05-1.33-2.85-.89-.8-2.18-1.41-3.89-1.84-1.79-.45-3.69-.87-5.69-1.27-2-.39-3.87-.9-5.63-1.5-4.02-1.37-6.91-3.24-8.67-5.59-1.76-2.35-2.64-5.27-2.64-8.77,0-4.68,1.99-8.51,5.98-11.47,3.99-2.96,9.11-4.44,15.37-4.44,3.14,0,6.24,.32,9.31,.96,3.07,.64,5.72,1.45,7.97,2.42v11.59h-1.31c-1.92-1.62-4.28-2.98-7.07-4.07-2.79-1.09-5.64-1.64-8.54-1.64-1.03,0-2.05,.07-3.06,.22-1.01,.15-1.99,.42-2.93,.83-.83,.34-1.55,.85-2.15,1.54-.6,.69-.9,1.47-.9,2.35,0,1.33,.48,2.35,1.44,3.06s2.78,1.36,5.45,1.94c1.75,.38,3.43,.75,5.05,1.11,1.61,.36,3.35,.86,5.21,1.49,3.65,1.26,6.35,2.98,8.09,5.15,1.74,2.17,2.61,4.99,2.61,8.46Z"/></g></g></g></svg>