<?xml version="1.0" encoding="UTF-8"?><svg id="Layer_2" xmlns="http://www.w3.org/2000/svg" viewBox="0 0 26.78 17.84"><g id="Camada_2"><path d="M22.87,17.84c-.62,0-1.12-.5-1.12-1.12,0-.26,.09-.51,.26-.71,3.38-4.13,3.38-10.06,0-14.19-.39-.48-.33-1.18,.15-1.57,.48-.39,1.18-.33,1.57,.15h0c4.06,4.96,4.06,12.08,0,17.03-.21,.26-.53,.41-.86,.4Zm-18.25-.26c.48-.39,.54-1.09,.15-1.57,0,0,0,0,0,0C1.39,11.89,1.39,5.95,4.77,1.83c.39-.47,.33-1.18-.15-1.57-.48-.39-1.18-.33-1.57,.15C-1.01,5.36-1.01,12.48,3.04,17.44c.39,.47,1.1,.54,1.57,.15h0ZM22.33,8.92c0,4.92-4,8.92-8.94,8.92C1.56,17.42,1.56,.42,13.39,0c4.94,0,8.93,4,8.94,8.92Zm-7.82,4.46c0-.62-.5-1.12-1.12-1.12s-1.12,.5-1.12,1.12,.5,1.12,1.12,1.12,1.12-.5,1.12-1.12Zm0-8.92c0-.62-.5-1.12-1.12-1.12s-1.12,.5-1.12,1.12v4.46c0,.62,.5,1.12,1.12,1.12s1.12-.5,1.12-1.12V4.46Z"/></g></svg>