<?xml version="1.0" encoding="UTF-8"?><svg id="Layer_2" xmlns="http://www.w3.org/2000/svg" viewBox="0 0 24.25 22.23"><defs><style>.cls-1{opacity:.5;}.cls-2{fill:#ed9b21;}</style></defs><g id="Layer_3"><g class="cls-1"><path class="cls-2" d="M22.26,1.29C20.98,.23,19.29-.21,17.66,.1l-3.32,.7c-.82,.15-1.59,.52-2.22,1.08-.61-.55-1.37-.92-2.18-1.07L6.55,.09C3.53-.46,.64,1.54,.09,4.56,.03,4.89,0,5.22,0,5.56V15.45c0,2.68,1.91,4.98,4.54,5.46l5.87,1.16c.56,.1,1.14,.15,1.71,.15,.59,0,1.17-.05,1.75-.16l5.82-1.16c2.64-.48,4.56-2.78,4.56-5.46V5.56c0-1.65-.73-3.21-2-4.27ZM10.61,19.02l-5.5-1.09c-1.2-.22-2.07-1.26-2.07-2.49V5.56c0-1.39,1.13-2.52,2.52-2.53,.14,0,.28,.01,.42,.04l3.4,.71c.72,.13,1.24,.76,1.24,1.49v13.76Zm10.61-3.57c0,1.23-.89,2.28-2.1,2.49l-5.48,1.08V5.26c0-.75,.55-1.38,1.28-1.5l3.32-.69c1.37-.25,2.69,.66,2.94,2.03,.03,.15,.04,.3,.04,.45V15.45Z"/></g></g></svg>