<?xml version="1.0" encoding="UTF-8"?><svg id="Layer_2" xmlns="http://www.w3.org/2000/svg" viewBox="0 0 18.56 22.16"><defs><style>.cls-1{opacity:.5;}.cls-2{fill:#af2225;}</style></defs><g id="Layer_3"><g class="cls-1"><path class="cls-2" d="M9.28,5.54c-2.04,0-3.69,1.65-3.69,3.69s1.65,3.69,3.69,3.69,3.69-1.65,3.69-3.69-1.65-3.69-3.69-3.69Zm0,5.54c-1.02,0-1.85-.83-1.85-1.85s.83-1.85,1.85-1.85,1.85,.83,1.85,1.85-.83,1.85-1.85,1.85Z"/><path class="cls-2" d="M9.28,22.16c-1.58,0-3.06-.75-3.98-2.03C1.78,15.27,0,11.62,0,9.28,0,4.15,4.16,0,9.28,0c5.13,0,9.28,4.16,9.28,9.28,0,2.34-1.78,5.99-5.3,10.84-.92,1.28-2.4,2.04-3.98,2.03Zm0-20.14c-4.01,0-7.26,3.26-7.27,7.27,0,1.86,1.75,5.29,4.92,9.66,.94,1.3,2.76,1.59,4.06,.64,.25-.18,.46-.4,.64-.64,3.17-4.37,4.92-7.81,4.92-9.66,0-4.01-3.26-7.26-7.27-7.27Z"/></g></g></svg>