<?xml version="1.0" encoding="UTF-8"?><svg id="Layer_2" xmlns="http://www.w3.org/2000/svg" viewBox="0 0 497.97 68.38"><defs><style>.cls-1{fill:#b21f67;}</style></defs><g id="Layer_3"><g><path class="cls-1" d="M34.06,52.8c.09,2.33,.66,4.01,1.72,5.02,1.06,1.01,2.88,1.52,5.46,1.52,.87,0,1.9-.16,3.1-.49,1.19-.33,2.02-.62,2.49-.88h1.21v9.25c-1.19,.3-2.48,.57-3.88,.81-1.39,.23-3.53,.35-6.4,.35-2.53,0-4.74-.35-6.62-1.04-1.88-.69-3.45-1.67-4.71-2.94-1.23-1.24-2.16-2.71-2.78-4.39s-.98-3.56-1.09-5.62c-7.11-.45-12.65-3.06-16.61-7.86C1.98,41.74,0,35.32,0,27.28S2.17,12.22,6.51,7.33,16.84,0,24.48,0s13.61,2.44,17.97,7.33,6.54,11.54,6.54,19.95c0,6.21-1.28,11.57-3.83,16.08-2.55,4.51-6.26,7.66-11.11,9.44Zm-1.31-12.27c1.19-1.59,2.07-3.47,2.65-5.64,.57-2.17,.86-4.72,.86-7.65,0-3.14-.33-5.81-.99-8.02-.66-2.2-1.52-3.98-2.59-5.34-1.09-1.41-2.34-2.43-3.75-3.06s-2.89-.95-4.42-.95-3.02,.3-4.39,.91c-1.37,.61-2.63,1.62-3.78,3.02-1.06,1.31-1.93,3.12-2.6,5.43-.67,2.31-1.01,4.99-1.01,8.03s.32,5.77,.97,7.96c.65,2.19,1.51,3.98,2.57,5.36,1.06,1.38,2.31,2.4,3.73,3.06,1.43,.66,2.93,.98,4.5,.98s3.07-.33,4.5-1,2.67-1.71,3.73-3.11Z"/><path class="cls-1" d="M99.97,34.49c0,6.47-1.79,11.43-5.36,14.87-3.57,3.45-8.84,5.17-15.8,5.17s-12.22-1.72-15.78-5.17c-3.56-3.45-5.35-8.39-5.35-14.84V1.09h12.32V33.75c0,3.63,.69,6.34,2.07,8.12,1.38,1.78,3.63,2.67,6.73,2.67s5.3-.86,6.72-2.57c1.42-1.71,2.12-4.45,2.12-8.23V1.09h12.32V34.49Z"/><path class="cls-1" d="M145.81,53.44h-34.38V1.09h34.38V11.21h-22.18v9.04h20.59v10.12h-20.59v12.94h22.18v10.12Z"/><path class="cls-1" d="M205.91,53.44h-12.19V18.39l-8.81,22.75h-8.46l-8.81-22.75V53.44h-11.55V1.09h14.24l10.69,26.26L191.68,1.09h14.24V53.44Z"/><path class="cls-1" d="M278.43,36.98c0,5.16-1.98,9.35-5.95,12.57-3.97,3.22-9.36,4.83-16.17,4.83-3.94,0-7.37-.38-10.29-1.14s-5.67-1.73-8.22-2.9v-12.55h1.34c2.53,2.23,5.37,3.94,8.51,5.13s6.16,1.79,9.05,1.79c.74,0,1.72-.07,2.94-.21s2.2-.37,2.97-.7c.94-.42,1.71-.95,2.31-1.58s.91-1.57,.91-2.81c0-1.15-.44-2.14-1.32-2.97-.88-.83-2.18-1.47-3.88-1.92-1.79-.47-3.68-.91-5.67-1.32-1.99-.41-3.86-.93-5.6-1.56-4-1.43-6.88-3.37-8.63-5.82-1.76-2.45-2.63-5.49-2.63-9.12,0-4.87,1.98-8.85,5.95-11.94,3.97-3.08,9.07-4.62,15.31-4.62,3.13,0,6.22,.33,9.27,1s5.7,1.51,7.93,2.51V15.71h-1.31c-1.92-1.69-4.26-3.1-7.04-4.24-2.78-1.14-5.61-1.71-8.51-1.71-1.02,0-2.04,.08-3.05,.23-1.01,.15-1.98,.44-2.92,.86-.83,.35-1.54,.89-2.14,1.6-.6,.72-.89,1.53-.89,2.44,0,1.38,.48,2.44,1.44,3.18s2.77,1.41,5.43,2.02c1.74,.4,3.42,.79,5.03,1.16,1.61,.38,3.34,.89,5.19,1.55,3.64,1.31,6.33,3.1,8.06,5.36,1.73,2.26,2.6,5.2,2.6,8.81Z"/><path class="cls-1" d="M333.05,27.28c0,8.34-2.17,14.97-6.51,19.88-4.34,4.91-10.34,7.37-18,7.37s-13.63-2.45-17.97-7.37c-4.34-4.91-6.51-11.54-6.51-19.88s2.17-15.06,6.51-19.95,10.33-7.33,17.97-7.33,13.61,2.44,17.97,7.33,6.54,11.54,6.54,19.95Zm-16.25,13.25c1.19-1.59,2.07-3.47,2.65-5.64,.57-2.17,.86-4.72,.86-7.65,0-3.14-.33-5.81-.99-8.02-.66-2.2-1.52-3.98-2.59-5.34-1.09-1.41-2.34-2.43-3.75-3.06s-2.89-.95-4.42-.95-3.02,.3-4.39,.91c-1.37,.61-2.63,1.62-3.78,3.02-1.06,1.31-1.93,3.12-2.6,5.43-.67,2.31-1.01,4.99-1.01,8.03s.32,5.77,.97,7.96c.65,2.19,1.51,3.98,2.57,5.36,1.06,1.38,2.31,2.4,3.73,3.06,1.43,.66,2.93,.98,4.5,.98s3.07-.33,4.5-1,2.67-1.71,3.73-3.11Z"/><path class="cls-1" d="M392.22,53.44h-12.19V18.39l-8.81,22.75h-8.46l-8.81-22.75V53.44h-11.55V1.09h14.24l10.69,26.26,10.66-26.26h14.24V53.44Z"/><path class="cls-1" d="M450.57,27.28c0,8.34-2.17,14.97-6.51,19.88-4.34,4.91-10.34,7.37-18,7.37s-13.63-2.45-17.97-7.37c-4.34-4.91-6.51-11.54-6.51-19.88s2.17-15.06,6.51-19.95,10.33-7.33,17.97-7.33,13.61,2.44,17.97,7.33,6.54,11.54,6.54,19.95Zm-16.25,13.25c1.19-1.59,2.07-3.47,2.65-5.64,.57-2.17,.86-4.72,.86-7.65,0-3.14-.33-5.81-.99-8.02-.66-2.2-1.52-3.98-2.59-5.34-1.09-1.41-2.34-2.43-3.75-3.06s-2.89-.95-4.42-.95-3.02,.3-4.39,.91c-1.37,.61-2.63,1.62-3.78,3.02-1.06,1.31-1.93,3.12-2.6,5.43-.67,2.31-1.01,4.99-1.01,8.03s.32,5.77,.97,7.96c.65,2.19,1.51,3.98,2.57,5.36,1.06,1.38,2.31,2.4,3.73,3.06,1.43,.66,2.93,.98,4.5,.98s3.07-.33,4.5-1,2.67-1.71,3.73-3.11Z"/><path class="cls-1" d="M497.97,36.98c0,5.16-1.98,9.35-5.95,12.57-3.97,3.22-9.36,4.83-16.17,4.83-3.94,0-7.37-.38-10.29-1.14s-5.67-1.73-8.22-2.9v-12.55h1.34c2.53,2.23,5.37,3.94,8.51,5.13s6.16,1.79,9.05,1.79c.74,0,1.72-.07,2.94-.21s2.2-.37,2.97-.7c.94-.42,1.71-.95,2.31-1.58s.91-1.57,.91-2.81c0-1.15-.44-2.14-1.32-2.97-.88-.83-2.18-1.47-3.88-1.92-1.79-.47-3.68-.91-5.67-1.32-1.99-.41-3.86-.93-5.6-1.56-4-1.43-6.88-3.37-8.63-5.82-1.76-2.45-2.63-5.49-2.63-9.12,0-4.87,1.98-8.85,5.95-11.94,3.97-3.08,9.07-4.62,15.31-4.62,3.13,0,6.22,.33,9.27,1s5.7,1.51,7.93,2.51V15.71h-1.31c-1.92-1.69-4.26-3.1-7.04-4.24-2.78-1.14-5.61-1.71-8.51-1.71-1.02,0-2.04,.08-3.05,.23-1.01,.15-1.98,.44-2.92,.86-.83,.35-1.54,.89-2.14,1.6-.6,.72-.89,1.53-.89,2.44,0,1.38,.48,2.44,1.44,3.18s2.77,1.41,5.43,2.02c1.74,.4,3.42,.79,5.03,1.16,1.61,.38,3.34,.89,5.19,1.55,3.64,1.31,6.33,3.1,8.06,5.36,1.73,2.26,2.6,5.2,2.6,8.81Z"/></g></g></svg>