<?xml version="1.0" encoding="UTF-8"?><svg id="Layer_2" xmlns="http://www.w3.org/2000/svg" viewBox="0 0 28.49 33.23"><defs><style>.cls-1{fill:#7f54a0;stroke:#7f54a0;stroke-miterlimit:10;stroke-width:2px;}</style></defs><g id="Layer_3"><g><line class="cls-1" x1="27.49" y1="24.58" x2="27.49" y2="8.78"/><line class="cls-1" x1="14.31" y1=".86" x2="1" y2="8.75"/><line class="cls-1" x1="14.31" y1=".86" x2="6.06" y2="10.56"/><line class="cls-1" x1="14.31" y1=".86" x2="27.49" y2="8.78"/><line class="cls-1" x1="22.41" y1="10.59" x2="27.49" y2="8.78"/><line class="cls-1" x1="14.31" y1=".86" x2="22.41" y2="10.59"/><line class="cls-1" x1="1" y1="8.75" x2="1.03" y2="24.55"/><line class="cls-1" x1="1" y1="8.75" x2="6.06" y2="10.56"/><line class="cls-1" x1="22.41" y1="10.59" x2="6.06" y2="10.56"/><line class="cls-1" x1="22.41" y1="10.59" x2="27.49" y2="24.58"/><line class="cls-1" x1="22.41" y1="10.59" x2="14.22" y2="26.36"/><line class="cls-1" x1="6.06" y1="10.56" x2="1.03" y2="24.55"/><line class="cls-1" x1="6.06" y1="10.56" x2="14.22" y2="26.36"/><line class="cls-1" x1="14.2" y1="32.36" x2="27.49" y2="24.58"/><line class="cls-1" x1="27.49" y1="24.58" x2="14.22" y2="26.36"/><line class="cls-1" x1="1.03" y1="24.55" x2="14.2" y2="32.36"/><line class="cls-1" x1="14.22" y1="26.36" x2="1.03" y2="24.55"/><line class="cls-1" x1="14.22" y1="26.36" x2="14.2" y2="32.36"/></g></g></svg>